<?xml version="1.0" encoding="UTF-8"?>
<svg version="1.1" xmlns="http://www.w3.org/2000/svg" width="577" height="546">
<path d="M0 0 C190.41 0 380.82 0 577 0 C577 180.18 577 360.36 577 546 C386.59 546 196.18 546 0 546 C0 365.82 0 185.64 0 0 Z " fill="#0D0808" transform="translate(0,0)"/>
<path d="M0 0 C190.41 0 380.82 0 577 0 C577 180.18 577 360.36 577 546 C386.59 546 196.18 546 0 546 C0 365.82 0 185.64 0 0 Z M270.90625 39.390625 C270.22701477 39.42126541 269.54777954 39.45190582 268.84796143 39.48347473 C262.77280678 39.83702021 257.35315619 41.31606268 251.53515625 43.03515625 C248.22472862 43.93866523 245.08842161 44.46212216 241.6875 44.875 C233.79494826 45.9508125 226.50370878 48.67791896 219.02661133 51.31689453 C217.18001796 51.93932174 215.30344982 52.47095491 213.42578125 52.9921875 C209.65232636 54.10228027 206.15331927 55.53667994 202.5625 57.125 C201.92634766 57.40214844 201.29019531 57.67929687 200.63476562 57.96484375 C199.0881313 58.63931586 197.54381303 59.31909495 196 60 C196 60.66 196 61.32 196 62 C194.2675 62.4640625 194.2675 62.4640625 192.5 62.9375 C166.33662564 71.76763885 139.9772593 94.50336232 122 115 C121.505 116.485 121.505 116.485 121 118 C119.33616013 119.33685917 117.66897376 120.66955567 116 122 C114.23481603 124.0133694 112.56993954 126.01060499 110.9375 128.125 C110.46634766 128.73335693 109.99519531 129.34171387 109.50976562 129.96850586 C96.63673973 146.8293713 85.01013135 165.18184944 78 185.30859375 C77 188 77 188 75.47265625 190.96484375 C73.98579612 194.02927431 73.17953458 196.80916548 72.4375 200.125 C71.62293893 203.7422034 70.65485706 206.7035779 69 210 C68.61649971 211.61389704 68.2850862 213.24084518 68 214.875 C67.28038556 218.73168365 66.24115839 222.27652484 65 226 C63.12464023 233.64001247 62.40531509 241.29181561 61.875 249.125 C61.79080811 250.34477539 61.70661621 251.56455078 61.61987305 252.82128906 C60.86840596 264.56153473 60.73457019 276.24235924 61 288 C61.00870117 288.71978027 61.01740234 289.43956055 61.02636719 290.18115234 C61.39532639 316.06554889 69.06198865 343.64671715 80 367 C80.45632812 368.09828125 80.91265625 369.1965625 81.3828125 370.328125 C83.52956555 375.37673901 86.23197897 380.13730169 88.859375 384.94726562 C89.24867187 385.66978516 89.63796875 386.39230469 90.0390625 387.13671875 C90.39178223 387.78342529 90.74450195 388.43013184 91.10791016 389.09643555 C92.02215587 391.04727676 92.54883298 392.89795856 93 395 C93.66 395 94.32 395 95 395 C95.26683594 395.73089844 95.53367188 396.46179688 95.80859375 397.21484375 C97.82978165 401.93978466 100.98037759 405.86606186 104 410 C104.68449219 410.94359375 105.36898437 411.8871875 106.07421875 412.859375 C121.16688789 433.34421857 138.59230028 452.10534704 159.4140625 466.85595703 C160.72119353 467.79887821 161.97807746 468.81104662 163.21875 469.83984375 C165.2043346 471.36384213 165.2043346 471.36384213 169 471 C169 471.66 169 472.32 169 473 C173.73616516 476.61306717 178.86288659 479.78332051 184.5 481.75 C187.90223594 482.96508426 188.64152053 483.57395992 191 486 C196.03597193 489.12372787 201.65872228 491.04613567 207.22265625 493 C209.79195866 493.92509342 212.29571401 494.9420407 214.8125 496 C219.97567033 498.09317716 225.26049519 499.58502559 230.62890625 501.05859375 C233.43221873 501.84144231 236.1758869 502.71058901 238.9375 503.625 C244.3503888 505.28567069 249.87767876 505.85685802 255.484375 506.47265625 C259 507 259 507 261.765625 507.99609375 C271.44398321 511.00012522 282.25363759 510.15581746 292.29614258 510.13037109 C294.79710006 510.12503287 297.29787623 510.13033313 299.79882812 510.13671875 C312.96569885 510.14413248 325.87403545 509.72135941 338.8125 507.0625 C339.67552734 506.89298828 340.53855469 506.72347656 341.42773438 506.54882812 C343.95522627 506.04790094 346.47752687 505.52553611 349 505 C349.78938965 504.84515137 350.5787793 504.69030273 351.39208984 504.53076172 C356.25804819 503.53491373 360.42732367 501.98596149 365 500 C369.41330136 498.6220147 373.88558841 497.45125021 378.34960938 496.25 C383.21634692 494.90648655 387.5877114 493.46677033 392 491 C392 490.34 392 489.68 392 489 C392.85851562 488.89816406 393.71703125 488.79632813 394.6015625 488.69140625 C398.28495755 487.94202588 401.05023208 486.67376769 404.375 484.9375 C405.43460937 484.38964844 406.49421875 483.84179688 407.5859375 483.27734375 C408.38257813 482.85582031 409.17921875 482.43429687 410 482 C410 481.34 410 480.68 410 480 C412.31 479.34 414.62 478.68 417 478 C417 477.34 417 476.68 417 476 C417.72316406 475.73058594 418.44632812 475.46117187 419.19140625 475.18359375 C454.73195264 460.20614513 486.79260448 420.44616282 504 387 C504 386.34 504 385.68 504 385 C504.66 385 505.32 385 506 385 C511.25411161 373.11859873 511.25411161 373.11859873 516.16796875 361.09375 C516.92407113 359.19106982 517.74013473 357.31249281 518.5625 355.4375 C521.56715141 348.25246401 523.38220183 341.78425699 524 334 C524.66 334 525.32 334 526 334 C526.98780871 328.28233074 527.92485627 322.56138259 528.765625 316.8203125 C528.96321411 315.47404785 528.96321411 315.47404785 529.16479492 314.10058594 C529.42834872 312.29437682 529.68896481 310.48773642 529.9465332 308.68066406 C530.06859131 307.8450293 530.19064941 307.00939453 530.31640625 306.1484375 C530.42412354 305.39739746 530.53184082 304.64635742 530.64282227 303.87255859 C531 302 531 302 532 300 C532.09970331 296.97917787 532.13976121 293.98196838 532.1328125 290.9609375 C532.13376923 290.04728424 532.13472595 289.13363098 532.13571167 288.19229126 C532.1363938 286.24700858 532.13453726 284.30172365 532.13037109 282.35644531 C532.12510898 279.43549178 532.13026965 276.51469817 532.13671875 273.59375 C532.14020974 262.68719375 531.85912251 251.87504283 531 241 C530.34 241 529.68 241 529 241 C528.95101563 239.87722656 528.90203125 238.75445312 528.8515625 237.59765625 C528.36763536 227.5218431 527.49599281 218.48188824 523.7890625 209.02734375 C521.77602531 203.85523334 520.0924846 198.69436538 519 193.25 C518.24264365 189.63221513 517.04576285 187.10955954 515 184 C514.28547837 182.34360896 513.57276314 180.68630674 512.8828125 179.01953125 C511.4843587 175.82041349 509.874845 172.73046717 508.28125 169.625 C507 167 507 167 505.75390625 163.8515625 C503.56553313 158.69474691 500.45711168 154.07512978 497.4375 149.375 C496.81270752 148.39950195 496.18791504 147.42400391 495.54418945 146.41894531 C482.13731085 125.69562853 465.49119568 107.18064279 446 92 C444.86333909 91.08618092 443.72798966 90.17072888 442.59375 89.25390625 C431.69234957 79.20936588 431.69234957 79.20936588 419 74 C418.67 73.01 418.34 72.02 418 71 C416.02 70.67 414.04 70.34 412 70 C411.67 69.01 411.34 68.02 411 67 C409.08168824 65.96053749 409.08168824 65.96053749 406.6875 65.1875 C402.64411838 63.68204693 398.83853579 61.97140842 395 60 C389.76943389 57.33777597 384.49019587 55.06580251 379 53 C378.30132812 52.73445313 377.60265625 52.46890625 376.8828125 52.1953125 C375.60535769 51.7131603 374.32607353 51.23580723 373.04443359 50.76489258 C371.74520123 50.27880528 370.45148053 49.77751081 369.16601562 49.25610352 C364.35868518 47.33753031 359.73297727 46.2633693 354.625 45.5 C349.95756607 44.79466017 345.52684888 43.90600861 341.01953125 42.48046875 C336.36471462 41.03909792 331.90924427 40.24635051 327.0625 39.8125 C326.19915039 39.73281982 325.33580078 39.65313965 324.44628906 39.57104492 C315.39013571 38.85238836 306.32902589 38.81576675 297.25 38.8125 C296.52177032 38.81150299 295.79354065 38.81050598 295.04324341 38.80947876 C286.98940195 38.81072582 278.94998686 38.97730411 270.90625 39.390625 Z " fill="#000000" transform="translate(0,0)"/>
<path d="M0 0 C2.31252664 -0.00217934 4.62456949 -0.02036832 6.93701172 -0.03930664 C19.73836639 -0.09016046 31.5912105 1.44769025 43.89404297 5.12280273 C45.20791992 5.50082031 45.20791992 5.50082031 46.54833984 5.88647461 C51.82288174 7.42668811 57.0100934 9.06304277 62.08154297 11.18530273 C62.41154297 11.84530273 62.74154297 12.50530273 63.08154297 13.18530273 C66.40678397 14.53953395 69.78332023 15.69276681 73.17529297 16.86889648 C74.13435547 17.30331055 75.09341797 17.73772461 76.08154297 18.18530273 C76.41154297 19.17530273 76.74154297 20.16530273 77.08154297 21.18530273 C78.73598441 21.88175499 80.40553461 22.54248223 82.08154297 23.18530273 C114.43199772 44.85873857 134.63519574 76.50781855 143.08154297 114.18530273 C143.26990723 115.0118335 143.45827148 115.83836426 143.65234375 116.68994141 C145.25474081 124.45490842 145.46683928 132.0858238 145.45654297 139.99780273 C145.45633148 140.67416779 145.45612 141.35053284 145.4559021 142.0473938 C145.41750361 154.42499358 144.06894638 166.16233201 141.08154297 178.18530273 C140.92089355 178.8854248 140.76024414 179.58554687 140.59472656 180.30688477 C136.61868927 197.2803939 126.99467034 213.71093118 116.08154297 227.18530273 C115.38802734 228.07862305 114.69451172 228.97194336 113.97998047 229.89233398 C95.46857493 253.27688339 66.81147261 274.61692868 36.58154297 279.49780273 C35.72391357 279.5899707 34.86628418 279.68213867 33.98266602 279.77709961 C31.09085714 280.18399218 28.46499733 280.88609369 25.66357422 281.70092773 C18.50961038 283.520969 11.62214915 283.68121182 4.26904297 283.62280273 C3.59578979 283.61942902 2.92253662 283.6160553 2.22888184 283.61257935 C-18.30371746 283.46456883 -39.67603874 280.54562549 -57.72314453 270.04077148 C-60.88301734 268.05776204 -60.88301734 268.05776204 -64.54345703 266.99780273 C-70.99755888 264.69634006 -76.45914237 260.23231643 -81.91845703 256.18530273 C-82.80017578 255.53174805 -83.68189453 254.87819336 -84.59033203 254.20483398 C-98.43460337 243.51300023 -109.97891817 230.21133614 -118.91845703 215.18530273 C-118.91845703 214.52530273 -118.91845703 213.86530273 -118.91845703 213.18530273 C-119.57845703 213.18530273 -120.23845703 213.18530273 -120.91845703 213.18530273 C-122.19082537 210.49852018 -123.46138868 207.81090806 -124.73095703 205.12280273 C-125.2655957 203.99455078 -125.2655957 203.99455078 -125.81103516 202.84350586 C-134.33741046 184.7738481 -134.33741046 184.7738481 -133.91845703 176.18530273 C-134.57845703 176.18530273 -135.23845703 176.18530273 -135.91845703 176.18530273 C-138.41891064 165.17854407 -139.42326929 154.64159435 -139.36450195 143.359375 C-139.35599718 140.88448505 -139.38488742 138.41192 -139.41650391 135.93725586 C-139.48217651 121.11166615 -137.16307608 106.50547432 -131.79345703 92.62280273 C-131.35731079 91.47038086 -131.35731079 91.47038086 -130.91235352 90.29467773 C-124.45092474 73.88937269 -114.88135374 59.31367562 -102.94189453 46.39624023 C-101.33335694 44.63864897 -99.82920329 42.86655135 -98.35595703 40.99780273 C-81.58620222 21.64808565 -57.25613142 9.89971965 -32.98095703 3.37280273 C-32.21243408 3.1656665 -31.44391113 2.95853027 -30.65209961 2.74511719 C-20.48541967 0.14004954 -10.44219621 -0.00109848 0 0 Z " fill="#F5F4F4" transform="translate(293.91845703125,132.814697265625)"/>
<path d="M0 0 C0.89790253 -0.00073517 1.79580505 -0.00147034 2.72091675 -0.00222778 C29.76893395 0.05558953 59.41871397 3.42264382 83.5625 16.4375 C85.64518765 17.5012651 87.72846055 18.56388567 89.8125 19.625 C90.80765625 20.13417969 91.8028125 20.64335938 92.828125 21.16796875 C95.11147349 22.22809484 97.10640425 22.9521287 99.5625 23.4375 C99.5625 24.0975 99.5625 24.7575 99.5625 25.4375 C100.67625 25.746875 101.79 26.05625 102.9375 26.375 C106.5625 27.4375 106.5625 27.4375 108.5625 28.4375 C108.5625 29.0975 108.5625 29.7575 108.5625 30.4375 C109.26375 30.685 109.965 30.9325 110.6875 31.1875 C113.95764548 32.60930238 116.703622 34.30996288 119.5625 36.4375 C119.5625 37.0975 119.5625 37.7575 119.5625 38.4375 C120.26632812 38.51484375 120.97015625 38.5921875 121.6953125 38.671875 C125.35224206 39.6483848 127.46634801 41.34384321 130.4375 43.6875 C130.99195801 44.12425049 131.54641602 44.56100098 132.11767578 45.01098633 C136.64285158 48.61390137 141.05539002 52.35008291 145.4375 56.125 C146.34604736 56.90762207 146.34604736 56.90762207 147.27294922 57.70605469 C160.3706414 69.14185827 181.4366152 88.96753732 185.5625 106.4375 C186.243125 107.0871875 186.243125 107.0871875 186.9375 107.75 C188.87723019 109.7643352 189.6360802 111.9068045 190.69726562 114.46069336 C192.14362368 117.76519708 193.89317672 120.90087827 195.625 124.0625 C198.79936641 129.86372742 201.38544206 135.28915666 202.875 141.75 C204.08757743 146.76734845 205.54578914 151.65286274 207.125 156.5625 C211.03009314 168.89300489 214.77553518 181.68014991 208.8125 193.9375 C203.38278732 203.91939604 196.2797491 208.96449136 185.5625 212.4375 C178.0989048 213.8791031 169.7315762 213.7778376 163.15625 209.625 C162.36734375 209.0371875 162.36734375 209.0371875 161.5625 208.4375 C160.53125 207.715625 159.5 206.99375 158.4375 206.25 C150.21246668 198.89664141 147.01995386 188.80461542 144.1953125 178.48828125 C140.6091664 165.35154205 140.6091664 165.35154205 134.95703125 153.0078125 C133.5625 150.4375 133.5625 150.4375 132.2109375 147.1328125 C130.0901233 142.06951458 126.97153708 137.6211643 123.97070312 133.046875 C123.53306641 132.36625 123.09542969 131.685625 122.64453125 130.984375 C122.24468018 130.37432617 121.8448291 129.76427734 121.43286133 129.13574219 C120.5625 127.4375 120.5625 127.4375 120.5625 124.4375 C119.69625 124.07978516 119.69625 124.07978516 118.8125 123.71484375 C116.09360393 122.17130379 114.57940818 120.38743866 112.5625 118 C104.42648357 108.76056957 95.285391 101.00973648 85.47265625 93.62890625 C83.63052673 92.24174563 81.82228848 90.80733557 80.06640625 89.3125 C77.2910216 87.23420884 74.67281005 86.10344479 71.4375 84.875 C65.85824293 82.75321271 65.85824293 82.75321271 64.19580078 80.97851562 C60.83356471 77.80625343 55.87774469 76.91240864 51.5625 75.5 C50.59054687 75.16548828 49.61859375 74.83097656 48.6171875 74.48632812 C33.07216233 69.32784471 18.02145135 66.75559793 1.65576172 66.91601562 C-0.93747347 66.93749978 -3.52794018 66.91604328 -6.12109375 66.890625 C-25.12139021 66.85822635 -42.03915878 71.46391693 -59.63134766 78.28857422 C-65.23115836 80.4375 -65.23115836 80.4375 -67.4375 80.4375 C-67.4375 81.0975 -67.4375 81.7575 -67.4375 82.4375 C-68.20320313 82.73140625 -68.20320313 82.73140625 -68.984375 83.03125 C-80.46115675 87.75219568 -90.08158193 95.42209014 -99.4375 103.4375 C-100.25863281 104.12328125 -101.07976562 104.8090625 -101.92578125 105.515625 C-114.21438253 116.09910936 -123.29705431 128.51627247 -131.4375 142.4375 C-132.22447266 143.736875 -132.22447266 143.736875 -133.02734375 145.0625 C-135.78872414 149.76272194 -137.70529112 154.56398657 -139.4765625 159.71484375 C-140.34668618 162.18019418 -141.33319189 164.54134135 -142.375 166.9375 C-144.70165692 172.61271806 -146.1008881 178.52958509 -147.51147461 184.48632812 C-150.11753702 195.07229568 -154.63691845 203.07220334 -164.125 208.875 C-167.4375 210.4375 -167.4375 210.4375 -171.4375 210.4375 C-171.4375 211.0975 -171.4375 211.7575 -171.4375 212.4375 C-174.37506119 212.4644501 -177.31237555 212.48431474 -180.25 212.5 C-181.08337891 212.50837891 -181.91675781 212.51675781 -182.77539062 212.52539062 C-183.57783203 212.52861328 -184.38027344 212.53183594 -185.20703125 212.53515625 C-185.94542236 212.54039307 -186.68381348 212.54562988 -187.44458008 212.55102539 C-189.4375 212.4375 -189.4375 212.4375 -192.4375 211.4375 C-192.4375 210.7775 -192.4375 210.1175 -192.4375 209.4375 C-193.17871094 209.33824219 -193.91992188 209.23898437 -194.68359375 209.13671875 C-200.27348677 207.71744095 -204.66905724 202.85600789 -207.875 198.1875 C-209.4375 195.4375 -209.4375 195.4375 -210.4375 192.4375 C-211.0975 192.1075 -211.7575 191.7775 -212.4375 191.4375 C-216.32954005 179.76137985 -212.51962481 166.91123482 -209.09570312 155.61181641 C-208.50430755 153.6581929 -207.94536168 151.69481616 -207.390625 149.73046875 C-204.31604178 139.10803575 -199.64643214 129.54485689 -194.29199219 119.91455078 C-192.58887753 116.80733516 -191.15198814 113.77705882 -189.98046875 110.4296875 C-188.4853749 106.28715671 -186.37004752 102.86077859 -183.875 99.25 C-183.44243896 98.61360596 -183.00987793 97.97721191 -182.56420898 97.3215332 C-179.48606193 92.84064405 -176.29088465 88.45175633 -173 84.125 C-172.58741943 83.58012939 -172.17483887 83.03525879 -171.74975586 82.47387695 C-169.76947579 79.92243296 -168.15814151 78.251261 -165.4375 76.4375 C-164.81875 75.3546875 -164.81875 75.3546875 -164.1875 74.25 C-161.79707239 70.40824134 -158.68749556 67.55691538 -155.4375 64.4375 C-154.65375 63.65375 -153.87 62.87 -153.0625 62.0625 C-152.19625 61.19625 -151.33 60.33 -150.4375 59.4375 C-149.90769531 58.8496875 -149.37789063 58.261875 -148.83203125 57.65625 C-143.5150427 51.96781514 -137.59561548 47.35026784 -131.375 42.6875 C-130.09870728 41.73061279 -130.09870728 41.73061279 -128.79663086 40.75439453 C-115.54046683 30.9474795 -115.54046683 30.9474795 -109.4375 29.4375 C-108.9425 28.9425 -108.4475 28.4475 -107.9375 27.9375 C-106.13601305 26.13601305 -104.86614387 26.04466097 -102.4375 25.4375 C-102.0146875 24.98117188 -101.591875 24.52484375 -101.15625 24.0546875 C-98.94277417 21.97200797 -96.76346818 21.170577 -93.9375 20.0625 C-89.99422377 18.48613062 -86.13827534 16.84182064 -82.3125 15 C-77.39674079 12.73889387 -72.37657488 10.96077601 -67.25 9.25 C-66.50153809 9.00000244 -65.75307617 8.75000488 -64.98193359 8.49243164 C-57.26110647 5.96965862 -49.84197884 4.20613124 -41.75 3.4375 C-36.64249938 2.93920726 -31.62545787 2.29556274 -26.5703125 1.40234375 C-17.73910146 0.02493414 -8.91880147 -0.00318532 0 0 Z " fill="#FC5758" transform="translate(297.4375,58.5625)"/>
<path d="M0 0 C7.97329264 5.62643669 12.75458551 12.758862 17.5078125 21.1484375 C23.14820412 30.79535415 29.50615152 39.38434632 36.9453125 47.7109375 C37.66340088 48.52183838 37.66340088 48.52183838 38.39599609 49.34912109 C59.34798814 72.63153979 87.61418278 85.77978538 118.06225586 91.28125 C119.9453125 91.7109375 119.9453125 91.7109375 120.9453125 92.7109375 C128.29860276 93.83060697 135.61626822 93.89713741 143.04492188 93.89624023 C145.04561464 93.89841071 147.04626817 93.91687716 149.046875 93.93554688 C160.66153918 93.95269451 171.77128108 93.04826175 182.9453125 89.7109375 C184.56592085 89.37640825 186.19079992 89.06148265 187.8203125 88.7734375 C192.62647191 87.83870206 197.47228428 86.74876357 201.9453125 84.7109375 C202.2753125 84.0509375 202.6053125 83.3909375 202.9453125 82.7109375 C205.24683144 81.58781953 207.52117876 80.56429519 209.8828125 79.5859375 C210.52927734 79.30878906 211.17574219 79.03164063 211.84179688 78.74609375 C216.66902709 76.7109375 216.66902709 76.7109375 218.9453125 76.7109375 C218.9453125 76.0509375 218.9453125 75.3909375 218.9453125 74.7109375 C220.61265995 73.66350128 222.33335229 72.70087448 224.0703125 71.7734375 C247.2391121 58.54576411 264.29268394 38.57420081 277.37475586 15.66064453 C285.44235107 1.72998082 285.44235107 1.72998082 291.09375 0.0859375 C291.70476562 -0.0378125 292.31578125 -0.1615625 292.9453125 -0.2890625 C293.3578125 -0.7840625 293.7703125 -1.2790625 294.1953125 -1.7890625 C299.32226363 -6.18359204 310.61364163 -4.63457246 316.9453125 -4.2890625 C319.44192974 -3.81992691 321.5581901 -3.17729409 323.9453125 -2.2890625 C323.9453125 -1.6290625 323.9453125 -0.9690625 323.9453125 -0.2890625 C324.6053125 -0.1034375 325.2653125 0.0821875 325.9453125 0.2734375 C332.91693316 3.61400573 337.68023966 8.78898308 340.9453125 15.7109375 C341.81365909 18.553581 342.06415613 21.07282926 342.04296875 24.0390625 C342.03974609 24.83828125 342.03652344 25.6375 342.03320312 26.4609375 C342.02482422 27.2859375 342.01644531 28.1109375 342.0078125 28.9609375 C342.00330078 29.80140625 341.99878906 30.641875 341.99414062 31.5078125 C341.98239211 33.57555151 341.96445772 35.64325374 341.9453125 37.7109375 C341.2853125 37.7109375 340.6253125 37.7109375 339.9453125 37.7109375 C339.60306641 39.165 339.60306641 39.165 339.25390625 40.6484375 C337.88647917 45.40636718 335.51100622 49.46673073 333.0078125 53.7109375 C332.27582642 54.95943481 332.27582642 54.95943481 331.52905273 56.2331543 C313.00763135 87.30431747 284.33601788 118.53773708 250.9453125 133.7109375 C250.2853125 133.7109375 249.6253125 133.7109375 248.9453125 133.7109375 C248.9453125 134.3709375 248.9453125 135.0309375 248.9453125 135.7109375 C244.29062791 138.06885802 239.62294539 140.39890377 234.9453125 142.7109375 C233.99269531 143.1853125 233.04007812 143.6596875 232.05859375 144.1484375 C225.95364689 147.06859145 219.82678559 148.98132274 213.296875 150.73828125 C210.3288348 151.59963557 207.59221115 152.61669618 204.7578125 153.8359375 C185.39298142 161.91983609 159.85036279 161.00665273 139.0703125 160.9609375 C138.32555664 160.96007141 137.58080078 160.95920532 136.81347656 160.95831299 C129.13555128 160.93513804 121.56055041 160.76718974 113.9453125 159.7109375 C113.9453125 159.0509375 113.9453125 158.3909375 113.9453125 157.7109375 C113.048125 157.69675781 112.1509375 157.68257812 111.2265625 157.66796875 C101.06831143 157.27968849 92.49509981 155.05941312 82.9453125 151.7109375 C80.92998761 151.02675211 78.91240476 150.34973084 76.89379883 149.67529297 C74.99630471 149.04049667 73.10162237 148.39731494 71.20703125 147.75390625 C68.70169549 146.95279889 66.33025624 146.32921022 63.7578125 145.8359375 C59.00705449 144.43407448 55.24731754 142.09249774 51.0703125 139.46484375 C48.67137749 138.11844148 46.73013157 137.23757527 44.17578125 136.3671875 C39.06927979 134.53512556 34.75489371 131.64042621 30.2578125 128.6484375 C29.37641602 128.06626465 28.49501953 127.4840918 27.58691406 126.88427734 C5.41021992 112.10387179 -13.19773942 94.10437932 -29.0546875 72.7109375 C-29.67085937 71.89109375 -30.28703125 71.07125 -30.921875 70.2265625 C-35.49410919 63.94764181 -39.25764748 57.26884349 -42.96484375 50.45703125 C-44.14750916 48.29281222 -45.34401998 46.28734401 -46.73828125 44.24609375 C-51.96493503 36.53196735 -50.96557662 27.16990237 -49.49609375 18.36328125 C-47.30654192 10.24412972 -42.73636404 4.7270935 -36.0546875 -0.2890625 C-33.09513643 -1.78284222 -30.30106174 -2.66869785 -27.0546875 -3.2890625 C-25.86746094 -3.55783203 -25.86746094 -3.55783203 -24.65625 -3.83203125 C-15.76697046 -5.39366144 -7.6779252 -4.81694927 0 0 Z " fill="#FC5758" transform="translate(151.0546875,329.2890625)"/>
<path d="M0 0 C0.75669983 0.00060425 1.51339966 0.0012085 2.29302979 0.00183105 C33.96886806 0.07014283 33.96886806 0.07014283 48.72265625 5.25390625 C52.03663579 6.27589478 55.18277139 6.72206354 58.625 7.125 C68.46419348 8.36588043 77.99903441 11.43167841 86.734375 16.16015625 C89.32464684 17.4803917 91.99147892 18.53778547 94.6875 19.625 C99.27698485 21.50251653 103.54708418 23.63745049 107.8359375 26.1171875 C110.06648276 27.36447199 112.3425802 28.33325427 114.75 29.1875 C114.75 29.8475 114.75 30.5075 114.75 31.1875 C117.06 31.8475 119.37 32.5075 121.75 33.1875 C121.75 33.8475 121.75 34.5075 121.75 35.1875 C122.81347656 35.57228516 122.81347656 35.57228516 123.8984375 35.96484375 C133.54454369 40.10077695 141.81784239 47.45588516 149.75 54.1875 C150.81704627 55.06851081 151.8847813 55.94868795 152.953125 56.828125 C173.78896333 74.13711067 189.30681866 93.4097662 203.75 116.1875 C204.22026611 116.91557861 204.69053223 117.64365723 205.17504883 118.39379883 C207.43710081 121.92879891 209.38746357 125.27978223 210.8125 129.25 C211.96194587 132.28119999 213.16092134 135.08483302 214.8125 137.875 C216.77599782 141.23194788 218.28393898 144.58898659 219.75 148.1875 C220.07871094 148.96480469 220.40742187 149.74210938 220.74609375 150.54296875 C221.79237978 153.29913857 222.50971928 156.00687705 223.1875 158.875 C225.37432379 168.97913002 225.37432379 168.97913002 229.75 178.1875 C230.21477049 180.95317133 230.58475162 183.65397046 230.875 186.4375 C230.96136719 187.17613281 231.04773438 187.91476563 231.13671875 188.67578125 C231.64029396 193.20795815 231.83442613 197.62848901 231.75 202.1875 C232.41 202.1875 233.07 202.1875 233.75 202.1875 C234.65771307 213.87182493 234.93631491 225.49990647 234.93530273 237.21679688 C234.93751318 240.07957328 234.95582071 242.94197755 234.97460938 245.8046875 C234.97754049 247.65885288 234.97952717 249.51302004 234.98046875 251.3671875 C234.98765427 252.20595428 234.99483978 253.04472107 235.00224304 253.90890503 C234.97950987 259.88285506 234.02938375 265.36599423 232.75 271.1875 C232.45659133 273.00580931 232.17938815 274.82698831 231.93359375 276.65234375 C231.74700195 278.00489258 231.74700195 278.00489258 231.55664062 279.38476562 C231.37391602 280.74118164 231.37391602 280.74118164 231.1875 282.125 C230.9388172 283.96780328 230.68762697 285.81027041 230.43359375 287.65234375 C230.32587646 288.452771 230.21815918 289.25319824 230.10717773 290.07788086 C229.75 292.1875 229.75 292.1875 228.75 295.1875 C228.09 295.1875 227.43 295.1875 226.75 295.1875 C226.688125 296.363125 226.62625 297.53875 226.5625 298.75 C225.55206481 307.9757126 221.94306669 316.98414132 217.75 325.1875 C216.73458247 327.51416536 215.73523183 329.84789262 214.75 332.1875 C214.2157903 333.43660316 213.68062675 334.68529879 213.14453125 335.93359375 C212.88349609 336.54267578 212.62246094 337.15175781 212.35351562 337.77929688 C211.5546875 339.64322917 210.75585938 341.50716146 209.95703125 343.37109375 C209.55871094 344.30050781 209.16039062 345.22992188 208.75 346.1875 C208.09 346.1875 207.43 346.1875 206.75 346.1875 C206.52957031 346.99445313 206.30914062 347.80140625 206.08203125 348.6328125 C204.38550011 353.16021232 202.0269586 356.99464937 199.4375 361.0625 C198.9113208 361.89241455 198.3851416 362.7223291 197.84301758 363.57739258 C192.41968221 371.96152835 186.25134746 379.62376539 179.75 387.1875 C179.07066406 387.98542969 178.39132812 388.78335937 177.69140625 389.60546875 C176.06566895 391.48651815 174.41143227 393.33798106 172.75 395.1875 C172.0796875 395.9609375 171.409375 396.734375 170.71875 397.53125 C158.33906221 411.65455579 143.55084515 423.31612143 127.8125 433.5 C127.22750732 433.87906494 126.64251465 434.25812988 126.03979492 434.64868164 C122.01160083 437.1875 122.01160083 437.1875 119.75 437.1875 C119.42 438.1775 119.09 439.1675 118.75 440.1875 C116.77 440.5175 114.79 440.8475 112.75 441.1875 C112.75 441.8475 112.75 442.5075 112.75 443.1875 C110.50474054 444.36416004 108.25455858 445.5289074 106 446.6875 C105.36578125 447.02136719 104.7315625 447.35523438 104.078125 447.69921875 C100.62989007 449.45925533 98.70159931 450.1875 94.75 450.1875 C94.42 451.1775 94.09 452.1675 93.75 453.1875 C86.30948472 457.22052266 77.06274172 458.86678416 68.92480469 461.08129883 C68.04211914 461.32517334 67.15943359 461.56904785 66.25 461.8203125 C65.4559375 462.03574707 64.661875 462.25118164 63.84375 462.47314453 C61.48805127 463.17701984 61.48805127 463.17701984 58.75 465.1875 C56.26977539 465.76586914 56.26977539 465.76586914 53.34765625 466.22265625 C52.29255859 466.39216797 51.23746094 466.56167969 50.15039062 466.73632812 C49.04888672 466.90583984 47.94738281 467.07535156 46.8125 467.25 C44.63650671 467.59371239 42.46071635 467.93871257 40.28515625 468.28515625 C39.319729 468.43476807 38.35430176 468.58437988 37.35961914 468.73852539 C34.84235907 469.13177847 34.84235907 469.13177847 32.78344727 469.70947266 C22.46896933 472.13422326 10.89019618 471.37385193 0.33740234 471.37280273 C-2.11508516 471.37499115 -4.56712253 471.39323715 -7.01953125 471.41210938 C-17.20569781 471.44799504 -27.20217378 471.00301859 -37.25 469.1875 C-37.58 468.8575 -37.91 468.5275 -38.25 468.1875 C-39.67455427 467.91542129 -41.10951518 467.69724127 -42.546875 467.50390625 C-43.4234375 467.38080078 -44.3 467.25769531 -45.203125 467.13085938 C-47.05184638 466.8791131 -48.9008023 466.62908265 -50.75 466.38085938 C-55.21909058 465.75035171 -59.10635527 465.04820402 -63.25 463.1875 C-65.3896338 462.56173226 -67.53621383 461.95945347 -69.6875 461.375 C-80.1631904 458.42116277 -90.41636251 454.87738865 -100.25 450.1875 C-100.9821875 449.8471875 -101.714375 449.506875 -102.46875 449.15625 C-107.87836945 446.5690407 -107.87836945 446.5690407 -109.71484375 444.68359375 C-111.51239646 442.9317803 -113.11390113 442.24193955 -115.4375 441.3125 C-119.94086934 439.3930311 -124.40927469 437.26426633 -128.25 434.1875 C-128.25 433.5275 -128.25 432.8675 -128.25 432.1875 C-128.95898438 432.105 -129.66796875 432.0225 -130.3984375 431.9375 C-133.93503342 431.00732683 -135.98951163 429.42744784 -138.875 427.1875 C-140.28652344 426.1046875 -140.28652344 426.1046875 -141.7265625 425 C-142.90267853 424.0645543 -144.07690215 423.12672787 -145.25 422.1875 C-146.06670166 421.54288818 -146.88340332 420.89827637 -147.72485352 420.23413086 C-154.53695911 414.77877315 -160.79640541 408.94548066 -166.9375 402.75 C-167.82244141 401.87279297 -168.70738281 400.99558594 -169.61914062 400.09179688 C-175.26793413 394.42630331 -180.38940278 388.53915505 -185.25 382.1875 C-185.69045654 381.62135986 -186.13091309 381.05521973 -186.5847168 380.47192383 C-202.25 360.2470146 -202.25 360.2470146 -202.25 356.1875 C-202.91 356.1875 -203.57 356.1875 -204.25 356.1875 C-204.85714844 354.70443359 -204.85714844 354.70443359 -205.4765625 353.19140625 C-206.94793568 349.75618973 -208.65679037 346.50895236 -210.46020508 343.23852539 C-214.34884593 336.18256986 -217.57635544 329.29953833 -220.08203125 321.62890625 C-221.02856408 318.83995833 -222.07106465 316.17337385 -223.19921875 313.45703125 C-225.33289652 308.17370959 -226.85296801 302.83075258 -228.25 297.3125 C-228.50418701 296.31726318 -228.75837402 295.32202637 -229.02026367 294.29663086 C-232.78336343 279.32627096 -235.95895934 264.6829061 -236.25 249.1875 C-236.27046387 248.33800781 -236.29092773 247.48851562 -236.31201172 246.61328125 C-236.78138378 224.61098078 -236.46219708 202.4125067 -230.25 181.1875 C-229.89449513 179.40010054 -229.55853312 177.60860352 -229.25 175.8125 C-228.43649381 171.47622147 -226.90476098 167.66153764 -225.1796875 163.61328125 C-224.30092176 161.32036729 -223.80076343 159.22371123 -223.375 156.8125 C-222.38537171 151.80250676 -220.1019026 147.63756467 -217.74609375 143.140625 C-216.46612343 140.61410395 -215.41618387 138.15191757 -214.4375 135.5 C-207.78508576 118.55923662 -193.18353219 87.65426609 -176.25 79.1875 C-175.858125 78.49140625 -175.46625 77.7953125 -175.0625 77.078125 C-172.61166101 73.16945938 -169.52513485 70.16499208 -166.25 66.9375 C-165.23643433 65.93517334 -165.23643433 65.93517334 -164.20239258 64.91259766 C-158.8126803 59.63734243 -153.27569759 54.73184812 -147.25 50.1875 C-146.60724121 49.70071777 -145.96448242 49.21393555 -145.30224609 48.71240234 C-137.18394373 42.59999487 -128.94299923 36.7929996 -120.1875 31.625 C-119.52218262 31.2319165 -118.85686523 30.83883301 -118.17138672 30.43383789 C-105.57165752 23.1875 -105.57165752 23.1875 -101.25 23.1875 C-101.25 22.5275 -101.25 21.8675 -101.25 21.1875 C-99.10617177 20.24519143 -96.96010047 19.30864337 -94.8125 18.375 C-93.61753906 17.85292969 -92.42257813 17.33085938 -91.19140625 16.79296875 C-77.83931606 11.19801661 -62.98880402 6.80990265 -48.69140625 4.6171875 C-45.9372439 4.13245493 -43.31564043 3.38547711 -40.625 2.625 C-35.89333876 1.41932282 -31.29296453 0.85459506 -26.4296875 0.609375 C-25.69155823 0.56950974 -24.95342896 0.52964447 -24.19293213 0.48857117 C-16.1302093 0.08374893 -8.07166558 -0.01205093 0 0 Z M-34.5625 11.5 C-35.74674561 11.61754639 -36.93099121 11.73509277 -38.15112305 11.85620117 C-44.08940669 12.53609099 -48.80355493 13.62297342 -54.25 16.1875 C-58.54259077 17.54567626 -62.90178805 18.67690972 -67.24804688 19.84960938 C-73.4471372 21.56328934 -79.31056072 23.73178898 -85.25 26.1875 C-87.2871552 26.94966892 -89.32784149 27.70262259 -91.375 28.4375 C-92.30570313 28.77265625 -93.23640625 29.1078125 -94.1953125 29.453125 C-95.21238281 29.81664062 -95.21238281 29.81664062 -96.25 30.1875 C-96.25 30.8475 -96.25 31.5075 -96.25 32.1875 C-97.508125 32.55875 -98.76625 32.93 -100.0625 33.3125 C-105.80402525 35.2202564 -111.15764327 37.9229356 -116.25 41.1875 C-116.58 41.8475 -116.91 42.5075 -117.25 43.1875 C-118.9159172 43.87917195 -120.58252248 44.56924311 -122.25292969 45.25 C-125.7979597 46.91417057 -128.78672667 49.30350967 -131.875 51.6875 C-132.57375244 52.22157471 -133.27250488 52.75564941 -133.99243164 53.3059082 C-136.08880998 54.92014101 -138.17225821 56.54936837 -140.25 58.1875 C-140.82057129 58.63657715 -141.39114258 59.0856543 -141.97900391 59.54833984 C-155.6942817 70.46458135 -168.79351882 83.10711198 -179.25 97.1875 C-179.70149414 97.7949707 -180.15298828 98.40244141 -180.61816406 99.02832031 C-195.99348787 119.86952619 -206.70769515 141.10666953 -214.7512207 165.67651367 C-216.03760236 169.59918365 -217.34760447 173.48375506 -218.86328125 177.32421875 C-220.34483802 181.22039992 -221.14656564 185.08156151 -221.8125 189.1875 C-221.92529297 189.82816406 -222.03808594 190.46882812 -222.15429688 191.12890625 C-222.55315712 193.47750235 -222.90353854 195.83058012 -223.25 198.1875 C-223.50704712 199.83214233 -223.50704712 199.83214233 -223.76928711 201.51000977 C-225.46217503 213.37239881 -225.68904668 225.15466251 -225.6875 237.125 C-225.68889984 238.16386353 -225.69029968 239.20272705 -225.69174194 240.27307129 C-225.67410754 256.19800874 -224.55220569 270.79013226 -220.25 286.1875 C-219.79787551 287.98299653 -219.35124028 289.77988441 -218.91015625 291.578125 C-216.45828674 301.4075847 -213.95574858 311.16814856 -209.25 320.1875 C-208.775625 321.30125 -208.30125 322.415 -207.8125 323.5625 C-206.69447886 326.15630905 -205.53861841 328.62125853 -204.25 331.125 C-202.25406292 335.04778403 -200.72978416 339.04410436 -199.25 343.1875 C-198.59 343.1875 -197.93 343.1875 -197.25 343.1875 C-196.96125 344.074375 -196.6725 344.96125 -196.375 345.875 C-195.41851252 348.69132424 -194.38201054 351.43833156 -193.25 354.1875 C-192.59 354.1875 -191.93 354.1875 -191.25 354.1875 C-190.92708984 355.18910156 -190.92708984 355.18910156 -190.59765625 356.2109375 C-188.80330714 360.17410858 -186.3275861 363.37287065 -183.6875 366.8125 C-183.14883301 367.52108154 -182.61016602 368.22966309 -182.05517578 368.9597168 C-173.01399636 380.79590612 -163.74729433 392.84763762 -152.2890625 402.45703125 C-149.99779603 404.40153517 -147.82198247 406.44972157 -145.625 408.5 C-137.0906463 416.17571446 -127.54077762 422.47415372 -117.875 428.625 C-117.23353027 429.03806396 -116.59206055 429.45112793 -115.93115234 429.87670898 C-112.10682094 432.26555909 -108.37861545 433.95787498 -104.13037109 435.4519043 C-101.27570684 436.56864065 -98.8239012 438.22274311 -96.25 439.875 C-82.62063457 448.0362739 -66.48832442 451.82055852 -51.1875 455.5625 C-50.21449951 455.8011377 -49.24149902 456.03977539 -48.23901367 456.28564453 C-34.01950244 459.59774289 -20.2136523 460.53072565 -5.6875 460.4375 C-4.44332306 460.4338443 -4.44332306 460.4338443 -3.17401123 460.43011475 C19.50296503 460.45959394 19.50296503 460.45959394 41.76318359 456.66015625 C45.17740389 455.84792591 48.64028263 455.50093105 52.125 455.125 C57.08744332 454.73075269 57.08744332 454.73075269 61.75 453.1875 C61.75 452.5275 61.75 451.8675 61.75 451.1875 C62.67619141 451.04054688 62.67619141 451.04054688 63.62109375 450.890625 C69.05077498 449.93195982 73.6039255 448.490061 78.5625 446.10546875 C80.71011156 445.2042389 82.51889293 444.83448436 84.8125 444.5 C91.68793107 443.12968012 97.62533478 439.00573766 103.58105469 435.46826172 C105.73234208 434.197927 107.8982302 432.95703952 110.0703125 431.72265625 C123.84072157 423.85006285 136.35200498 414.92750612 148.27880859 404.47509766 C149.63225578 403.29055061 150.99724811 402.1192292 152.36328125 400.94921875 C173.00962158 382.93718022 188.01074111 360.54374591 201.1875 336.75 C201.95042358 335.38258667 201.95042358 335.38258667 202.72875977 333.98754883 C205.37855053 329.12241026 207.46429354 324.4273855 209.08642578 319.13232422 C209.95793343 316.57808216 211.30043192 314.45416879 212.75 312.1875 C215.6494116 305.65608525 217.3010875 299.177425 218.2578125 292.109375 C218.75 289.1875 218.75 289.1875 219.70703125 285.90625 C223.57630241 272.11019702 224.36860395 257.44535569 224.75 243.1875 C224.811875 241.27324219 224.811875 241.27324219 224.875 239.3203125 C225.08164224 226.89594808 223.94216073 214.5439971 222.75 202.1875 C222.64582764 201.08365967 222.64582764 201.08365967 222.53955078 199.95751953 C221.57059843 190.2507373 218.86860753 181.37178727 215.75 172.1875 C215.02083333 170 214.29166667 167.8125 213.5625 165.625 C213.23765625 164.66335937 212.9128125 163.70171875 212.578125 162.7109375 C211.93195415 160.74194519 211.35776075 158.74928943 210.8125 156.75 C200.82376933 123.25837363 176.78087077 89.21430874 149.75 67.1875 C148.5764202 66.20230244 147.40328853 65.21657095 146.23046875 64.23046875 C139.49462528 58.61449869 132.66937296 53.25127007 125.375 48.375 C124.73876709 47.94856201 124.10253418 47.52212402 123.44702148 47.08276367 C120.35592488 44.89164509 120.35592488 44.89164509 116.75 44.1875 C116.42 43.1975 116.09 42.2075 115.75 41.1875 C113.97041033 40.52451561 112.18606587 39.87294503 110.38671875 39.265625 C107.03352649 37.89454194 103.98425222 36.09118638 100.875 34.25 C96.06126919 31.41658117 91.29269119 28.97315439 86.03125 27.07421875 C83.75 26.1875 83.75 26.1875 81.03930664 24.75317383 C77.65155348 23.14064054 74.47333651 22.17128552 70.83984375 21.25 C70.1910878 21.0837915 69.54233185 20.91758301 68.87391663 20.74633789 C66.81334954 20.22029743 64.75049757 19.7039155 62.6875 19.1875 C61.33122802 18.84174227 59.97510686 18.49539236 58.61914062 18.1484375 C54.66769431 17.14101741 50.70937263 16.16329834 46.75 15.1875 C45.65059082 14.90777344 44.55118164 14.62804687 43.41845703 14.33984375 C29.18485346 10.84348564 15.16247962 9.80623593 0.5625 9.875 C-0.5894838 9.87673721 -0.5894838 9.87673721 -1.76473999 9.87850952 C-12.75203522 9.91095135 -23.63032639 10.39811135 -34.5625 11.5 Z " fill="#EEEEEE" transform="translate(297.25,38.8125)"/>
<path d="M0 0 C0 31.35 0 62.7 0 95 C-4.95 95.99 -4.95 95.99 -10 97 C-16.71219932 101.24447898 -23.63294356 107.05250896 -26.52734375 114.73046875 C-28.46213365 124.02065828 -27.92694233 133.78359911 -23 142 C-18.91571139 147.81303454 -14.06708675 153.02102796 -6.81640625 154.421875 C-4.88220771 154.65632331 -2.9411561 154.83265896 -1 155 C0 156 0 156 0.12304783 157.80972385 C0.12212604 158.6052312 0.12120424 159.40073854 0.12025452 160.22035217 C0.12231651 161.58550713 0.12231651 161.58550713 0.12442017 162.97824097 C0.11902725 164.48766769 0.11902725 164.48766769 0.11352539 166.02758789 C0.11367142 167.08111954 0.11381744 168.13465118 0.1139679 169.22010803 C0.11326826 172.720978 0.10547348 176.22179552 0.09765625 179.72265625 C0.09579225 182.14261343 0.09436826 184.56257099 0.09336853 186.98252869 C0.08954192 193.36615024 0.07971041 199.74974921 0.06866455 206.13336182 C0.05845351 212.64163914 0.05387157 219.1499201 0.04882812 225.65820312 C0.03808827 238.43881175 0.02120112 251.21940467 0 264 C-1.91127986 264.01208821 -3.82258197 264.02068994 -5.73388672 264.02783203 C-6.79823944 264.03299835 -7.86259216 264.03816467 -8.959198 264.04348755 C-24.04731558 263.82770722 -41.29523458 258.99394881 -54.16796875 251.09765625 C-56.06270152 249.96243256 -57.96131947 249.09570515 -60 248.25 C-63 247 -63 247 -64 246 C-64.09797065 243.06695272 -64.12991804 240.15744612 -64.12025452 237.22398376 C-64.12110894 236.2920794 -64.12196337 235.36017504 -64.12284368 234.40003115 C-64.12450134 231.25226407 -64.11897247 228.10454934 -64.11352539 224.95678711 C-64.11324355 222.71036277 -64.11340118 220.46393833 -64.1139679 218.21751404 C-64.11425601 212.09792571 -64.10835706 205.97835679 -64.10139394 199.85877299 C-64.09516269 193.47124373 -64.09455678 187.08371408 -64.09336853 180.69618225 C-64.09060882 169.96826781 -64.08435329 159.24036189 -64.07543945 148.51245117 C-64.06626606 137.46069372 -64.05918487 126.40893822 -64.05493164 115.35717773 C-64.05466892 114.67640547 -64.05440619 113.9956332 -64.05413551 113.29423147 C-64.05283051 109.87913387 -64.05156679 106.46403625 -64.05032361 103.04893863 C-64.03995012 74.69928749 -64.02225692 46.34964413 -64 18 C-61.97024368 16.85366682 -59.93374024 15.71927599 -57.89453125 14.58984375 C-56.76120361 13.9568335 -55.62787598 13.32382324 -54.46020508 12.67163086 C-49.74889799 10.39559052 -45.1744871 9.50811597 -40 9 C-40 8.34 -40 7.68 -40 7 C-34.3730462 4.32086374 -28.9255226 2.95176527 -22.8125 1.8125 C-21.94302734 1.63525391 -21.07355469 1.45800781 -20.17773438 1.27539062 C-13.14907942 -0.06217119 -7.41622651 0 0 0 Z " fill="#030303" transform="translate(294,142)"/>
<path d="M0 0 C5.61 0 11.22 0 17 0 C17.33 0.33 17.66 0.66 18 1 C19.59842377 1.30289081 21.20436341 1.56633317 22.8125 1.8125 C34.170804 3.81518681 45.55398557 8.10688733 56 13 C56.68366371 13.30704257 57.36732741 13.61408513 58.0717082 13.93043202 C63.54675804 16.79051325 63.54675804 16.79051325 64.73312473 19.95636046 C65.01221703 22.42189174 65.02828464 24.77635558 64.96203613 27.2570343 C64.96887153 28.19235636 64.97570693 29.12767843 64.98274946 30.09134358 C64.99593574 33.22791167 64.95192302 36.3610616 64.90820312 39.49731445 C64.90594671 41.74432799 64.90721285 43.99134744 64.91174316 46.23835754 C64.91404152 52.3416879 64.86695986 58.44376424 64.8111515 64.54680276 C64.76119056 70.92356804 64.75644556 77.30036107 64.74694824 83.67729187 C64.72489659 94.38154392 64.67490469 105.08529985 64.60351562 115.78930664 C64.53006632 126.81369729 64.47344763 137.83796285 64.43945312 148.86254883 C64.43735134 149.5422702 64.43524955 150.22199158 64.43308407 150.92231057 C64.42264366 154.33232485 64.41253402 157.74234003 64.40258884 161.15235579 C64.31967513 189.43522094 64.17819272 217.71758577 64 246 C62.97829964 246.40654564 62.97829964 246.40654564 61.93595886 246.82130432 C61.03952164 247.17877243 60.14308441 247.53624054 59.21948242 247.90454102 C58.33209885 248.25807144 57.44471527 248.61160187 56.53044128 248.97584534 C53.42804351 250.23149002 50.37123648 251.57931566 47.3125 252.9375 C31.55030349 259.68296871 17.27516684 263 0 263 C0 227.03 0 191.06 0 154 C3.63 153.01 7.26 152.02 11 151 C18.55049473 146.40404669 23.13921398 140.73654622 26.375 132.5 C28.04262342 123.16130884 26.69609876 115.19248649 22.3125 106.75 C16.2961445 99.59541509 9.09509904 95.81901981 0 94 C0 62.98 0 31.96 0 0 Z " fill="#020202" transform="translate(300,143)"/>
<path d="M0 0 C0 69.96 0 139.92 0 212 C-6.07897377 210.48025656 -9.53331475 206.24895908 -14 202 C-14.75925781 201.29359375 -15.51851562 200.5871875 -16.30078125 199.859375 C-25.50361796 191.03249787 -33.7595121 180.69523519 -39 169 C-39 168.34 -39 167.68 -39 167 C-39.66 167 -40.32 167 -41 167 C-41.67318538 165.44104438 -42.3433954 163.88077405 -43.00390625 162.31640625 C-43.73936691 160.6060997 -44.5012352 158.90709267 -45.27734375 157.21484375 C-48.15973684 150.73990276 -49.82713752 145.10307654 -50 138 C-50.66 138 -51.32 138 -52 138 C-52.32076956 136.56432267 -52.63094808 135.12628018 -52.9375 133.6875 C-53.11152344 132.88699219 -53.28554687 132.08648437 -53.46484375 131.26171875 C-56.71830334 111.43223874 -59.32577527 82.71225411 -48 65 C-47.773125 63.741875 -47.54625 62.48375 -47.3125 61.1875 C-44.12744767 45.67321284 -18.37553522 0 0 0 Z " fill="#EE5556" transform="translate(220,168)"/>
<path d="M0 0 C3.26256552 1.63128276 5.016372 2.73039044 7.57421875 5.125 C8.23728027 5.74375 8.9003418 6.3625 9.58349609 7 C10.27781738 7.66 10.97213867 8.32 11.6875 9 C12.40502441 9.680625 13.12254883 10.36125 13.86181641 11.0625 C39.71807103 35.77777937 54.39842947 66.76884548 55.33129883 102.81738281 C55.547352 118.86083985 53.33439799 133.8674652 48 149 C47.76941895 149.67353516 47.53883789 150.34707031 47.30126953 151.04101562 C41.28485953 168.40580122 30.89712106 184.06325645 18 197 C17.1853125 197.825 16.370625 198.65 15.53125 199.5 C12.83879683 202.159213 10.09624724 204.74902199 7.3125 207.3125 C6.35988281 208.19550781 5.40726562 209.07851563 4.42578125 209.98828125 C2 212 2 212 0 212 C0 142.04 0 72.08 0 0 Z " fill="#F65556" transform="translate(374,168)"/>
<path d="M0 0 C3.81764737 0.95441184 4.68658687 1.2976015 7.35546875 3.80859375 C7.97333252 4.38536865 8.59119629 4.96214355 9.2277832 5.55639648 C9.87448975 6.17716064 10.52119629 6.7979248 11.1875 7.4375 C11.8580542 8.0756665 12.5286084 8.71383301 13.21948242 9.37133789 C38.88265934 33.99993411 53.40439423 64.99933948 54.33129883 100.81738281 C54.547352 116.86083985 52.33439799 131.8674652 47 147 C46.76941895 147.67353516 46.53883789 148.34707031 46.30126953 149.04101562 C40.28485953 166.40580122 29.89712106 182.06325645 17 195 C16.1853125 195.825 15.370625 196.65 14.53125 197.5 C11.83879683 200.159213 9.09624724 202.74902199 6.3125 205.3125 C5.35988281 206.19550781 4.40726562 207.07851563 3.42578125 207.98828125 C1 210 1 210 -1 210 C-1 203.4 -1 196.8 -1 190 C1.64 190 4.28 190 7 190 C9.13127035 188.93082404 9.13127035 188.93082404 10.5625 187.125 C11.40554688 186.18333984 11.40554688 186.18333984 12.265625 185.22265625 C14.85299421 181.90686102 17.22472892 178.46500434 19.51953125 174.94140625 C20.00808594 174.30074219 20.49664062 173.66007813 21 173 C21.66 173 22.32 173 23 173 C22.505 172.319375 22.01 171.63875 21.5 170.9375 C19.65680833 167.32791631 19.55494424 165.00550187 20 161 C21 159.125 21 159.125 23 158 C25.6566822 157.55121809 28.32048559 157.29712357 31 157 C32.34146494 153.56561785 33.67175905 150.12701583 35 146.6875 C35.57234375 145.22280273 35.57234375 145.22280273 36.15625 143.72851562 C36.5171875 142.79072266 36.878125 141.85292969 37.25 140.88671875 C37.58515625 140.02264404 37.9203125 139.15856934 38.265625 138.26831055 C39.15400692 135.92168026 39.15400692 135.92168026 39 133 C38.175 132.236875 37.35 131.47375 36.5 130.6875 C34 128 34 128 33.4375 124.9375 C34.12982222 121.32203951 35.00051391 120.10774698 38 118 C39.65 118 41.3 118 43 118 C43 109.09 43 100.18 43 91 C41.35 91 39.7 91 38 91 C35.6875 89.4375 35.6875 89.4375 34 87 C33.52352392 83.18819135 33.47358509 80.93319007 35.375 77.5625 C37 76 37 76 39 76 C37.67406053 67.80011118 35.65173265 59.97759898 31 53 C29.14037611 52.35461924 29.14037611 52.35461924 27.0625 52.0625 C24.40219496 51.45898252 23.15181515 51.12334981 21 49.375 C19.35429518 45.46645105 19.22626422 41.0428262 20.73828125 37.05078125 C21.23900553 34.83985378 21.23900553 34.83985378 19.55859375 32.66796875 C18.85863281 31.84941406 18.15867187 31.03085938 17.4375 30.1875 C16.695 29.31738281 15.9525 28.44726562 15.1875 27.55078125 C14.465625 26.70902344 13.74375 25.86726563 13 25 C12.46375 24.27167969 11.9275 23.54335937 11.375 22.79296875 C10.900625 22.16003906 10.42625 21.52710938 9.9375 20.875 C9.53402344 20.31554687 9.13054687 19.75609375 8.71484375 19.1796875 C6.38571448 17.33877097 6.38571448 17.33877097 0 18 C0 12.06 0 6.12 0 0 Z " fill="#0D0909" transform="translate(375,170)"/>
<path d="M0 0 C0 5.94 0 11.88 0 18 C-2.31 18 -4.62 18 -7 18 C-9.92937662 19.73395424 -11.85886229 22.3755253 -14 25 C-14.75539062 25.90363281 -15.51078125 26.80726563 -16.2890625 27.73828125 C-19.44877867 31.67516422 -19.44877867 31.67516422 -22 36 C-21.27726548 38.62979112 -21.27726548 38.62979112 -20 41 C-20.17435146 44.37079485 -20.43029637 46.96112867 -22.0625 49.9375 C-25.27572893 51.69959328 -28.3842174 51.17782537 -32 51 C-34.92608728 59.19304439 -36.95838673 67.5537319 -39 76 C-38.34 76 -37.68 76 -37 76 C-34.53196313 79.70205531 -34.44711912 82.70653444 -35 87 C-36.1875 89.5 -36.1875 89.5 -38 91 C-39.65 91 -41.3 91 -43 91 C-43 99.91 -43 108.82 -43 118 C-41.02 118.33 -39.04 118.66 -37 119 C-35.11725273 121.31064437 -34.99499731 123.04002153 -34.625 126 C-35 129 -35 129 -37.125 130.75 C-39.2193282 132.77393625 -39.2193282 132.77393625 -38.99609375 135.046875 C-37.63414627 142.75230757 -34.48582571 150.02834858 -31 157 C-29.906875 157.144375 -28.81375 157.28875 -27.6875 157.4375 C-22.2815534 158.26213592 -22.2815534 158.26213592 -20 161 C-19.66304651 164.57170702 -19.84444546 167.42233768 -20.77734375 170.88671875 C-21.30948238 174.09729572 -21.30948238 174.09729572 -19.3046875 176.78125 C-18.10199219 178.12703125 -18.10199219 178.12703125 -16.875 179.5 C-16.0396875 180.44488281 -15.204375 181.38976562 -14.34375 182.36328125 C-13.5703125 183.23339844 -12.796875 184.10351562 -12 185 C-11.11926548 186.22506424 -10.2427957 187.45323653 -9.375 188.6875 C-6.71659322 191.81388613 -6.71659322 191.81388613 0 191 C0 196.94 0 202.88 0 209 C-7.88491718 205.62074978 -7.88491718 205.62074978 -10.61328125 202.8828125 C-11.21664307 202.28243164 -11.82000488 201.68205078 -12.44165039 201.06347656 C-13.05903076 200.4237793 -13.67641113 199.78408203 -14.3125 199.125 C-14.96404053 198.45952148 -15.61558105 197.79404297 -16.28686523 197.10839844 C-38 174.57281674 -38 174.57281674 -38 165 C-38.66 165 -39.32 165 -40 165 C-40.67318538 163.44104438 -41.3433954 161.88077405 -42.00390625 160.31640625 C-42.73936691 158.6060997 -43.5012352 156.90709267 -44.27734375 155.21484375 C-47.15973684 148.73990276 -48.82713752 143.10307654 -49 136 C-49.66 136 -50.32 136 -51 136 C-51.32076956 134.56432267 -51.63094808 133.12628018 -51.9375 131.6875 C-52.11152344 130.88699219 -52.28554687 130.08648437 -52.46484375 129.26171875 C-55.71830334 109.43223874 -58.32577527 80.71225411 -47 63 C-46.773125 61.741875 -46.54625 60.48375 -46.3125 59.1875 C-41.94449712 37.91109888 -22.59693086 13.20563929 -5 1 C-1.77149155 0 -1.77149155 0 0 0 Z " fill="#0C090A" transform="translate(219,170)"/>
<path d="M0 0 C0.66 0 1.32 0 2 0 C3.50603111 1.99066027 4.85804393 3.95690197 6.1875 6.0625 C6.58606201 6.6922876 6.98462402 7.3220752 7.39526367 7.97094727 C20.99115255 29.93896991 27.01875228 55.96846717 21.75 81.625 C21.20066763 83.75904234 20.61917232 85.88516468 20 88 C19.73316406 88.98613281 19.46632813 89.97226562 19.19140625 90.98828125 C16.22157965 100.95369939 11.29771344 110.7214034 5 119 C4.67 119.886875 4.34 120.77375 4 121.6875 C3.67 122.450625 3.34 123.21375 3 124 C1.515 124.495 1.515 124.495 0 125 C0 83.75 0 42.5 0 0 Z " fill="#0A0606" transform="translate(374,212)"/>
<path d="M0 0 C0.33 0 0.66 0 1 0 C1 40.92 1 81.84 1 124 C-3.492536 119.507464 -6.03868206 116.03377364 -9 110.625 C-9.43570313 109.83206543 -9.87140625 109.03913086 -10.3203125 108.22216797 C-22.03385516 86.30749741 -25.29374476 58.51259012 -18.3371582 34.52709961 C-14.6609932 23.15953479 -8.51706544 8.51706544 0 0 Z " fill="#060202" transform="translate(218,212)"/>
<path d="M0 0 C4.37258359 2.22081219 6.78559901 4.62296323 9 9 C10.28051785 15.02034513 10.79724867 21.06910217 7.4765625 26.484375 C2.30337479 31.76670169 -1.91363439 32.44283876 -9.24267578 32.60913086 C-12.64070556 32.53095407 -14.70211226 32.20754853 -17.51171875 30.25 C-19.22087574 28.24344253 -20.65197199 26.26105407 -22 24 C-22.33 23.67 -22.66 23.34 -23 23 C-23.73366175 17.00212609 -24.28644789 10.83657766 -21.7421875 5.2265625 C-16.07783916 -1.5657513 -8.21908692 -1.84402591 0 0 Z " fill="#EDEDED" transform="translate(487,282)"/>
<path d="M0 0 C6.59533409 0.00671623 6.59533409 0.00671623 9.7890625 2.02734375 C11.46715278 3.77327172 12.91460324 5.57283086 14.375 7.5 C15.035 7.83 15.695 8.16 16.375 8.5 C17.69601949 20.87844193 17.69601949 20.87844193 14.86328125 26.5 C10.64118553 31.36984793 6.79566277 33.14449487 0.375 33.625 C-4.74397185 33.24190992 -8.03152949 32.22369403 -12 28.9375 C-16.41715428 23.70818603 -16.8445827 18.66882798 -16.46875 11.984375 C-15.32809386 7.27388762 -13.39264828 5.29785331 -9.47265625 2.6015625 C-8.86292969 2.23804688 -8.25320312 1.87453125 -7.625 1.5 C-5.70123022 -0.42376978 -2.56890054 0.10816423 0 0 Z " fill="#F0F0F0" transform="translate(113.625,281.5)"/>
<path d="M0 0 C2.33294775 -0.04241723 4.66702567 -0.04092937 7 0 C9.05922402 2.05922402 8.41427579 6.21708124 8.5625 9.0625 C8.60568359 9.82111328 8.64886719 10.57972656 8.69335938 11.36132812 C8.79973633 13.24065438 8.90039934 15.12030244 9 17 C9.66 17 10.32 17 11 17 C11.10957031 16.41992188 11.21914063 15.83984375 11.33203125 15.2421875 C12.3143365 10.40253723 13.54821911 6.34633884 16 2 C18.33294775 1.95758277 20.66702567 1.95907063 23 2 C24.95151627 3.95151627 24.70968749 7.45168745 25.0625 10.0625 C25.23910156 11.35285156 25.41570312 12.64320312 25.59765625 13.97265625 C25.79681641 15.47119141 25.79681641 15.47119141 26 17 C26.66 17 27.32 17 28 17 C28.19916016 16.09507813 28.19916016 16.09507813 28.40234375 15.171875 C28.57894531 14.37265625 28.75554687 13.5734375 28.9375 12.75 C29.19853516 11.56664063 29.19853516 11.56664063 29.46484375 10.359375 C29.947556 8.23121297 30.46163178 6.11467158 31 4 C36.75 3.875 36.75 3.875 39 5 C39.47056923 9.51746464 39.31549088 11.93435135 36.6875 15.6875 C33.22991464 20.66760164 32.20240713 26.13459938 31 32 C28.03 32 25.06 32 22 32 C19.38718512 26.12116651 19.81671798 20.29268272 20 14 C17.24513969 15.37743016 17.05607982 17.22389935 16.09570312 20.015625 C15.87849609 20.67046875 15.66128906 21.3253125 15.4375 22 C13.11218425 28.88781575 13.11218425 28.88781575 12 30 C10.1875 30.1328125 10.1875 30.1328125 8 30.125 C7.278125 30.12757812 6.55625 30.13015625 5.8125 30.1328125 C4 30 4 30 3 29 C2.32445939 25.86189546 1.91002076 22.67425431 1.4375 19.5 C1.29892578 18.62601563 1.16035156 17.75203125 1.01757812 16.8515625 C0.16171665 11.16830502 -0.13431853 5.74649702 0 0 Z " fill="#FFF0F0" transform="translate(300,77)"/>
<path d="M0 0 C0 9.9 0 19.8 0 30 C-3.96 30.495 -3.96 30.495 -8 31 C-8.48210937 30.14535156 -8.96421875 29.29070312 -9.4609375 28.41015625 C-10.09257812 27.30542969 -10.72421875 26.20070313 -11.375 25.0625 C-12.00148437 23.96035156 -12.62796875 22.85820313 -13.2734375 21.72265625 C-14.71898614 18.92556953 -14.71898614 18.92556953 -17 18 C-16.94779297 19.69769531 -16.94779297 19.69769531 -16.89453125 21.4296875 C-16.86639664 22.91144353 -16.83909613 24.39321556 -16.8125 25.875 C-16.78736328 26.62136719 -16.76222656 27.36773437 -16.73632812 28.13671875 C-16.70703125 30.3046875 -16.70703125 30.3046875 -17 34 C-20.22271432 36.14847621 -21.2569795 36.63834458 -25 36 C-26.80078125 33.8828125 -26.80078125 33.8828125 -28.3125 31.125 C-28.82425781 30.22007813 -29.33601562 29.31515625 -29.86328125 28.3828125 C-31 26 -31 26 -31 24 C-31.66 24 -32.32 24 -33 24 C-36.12389348 19.444322 -38 15.54891125 -38 10 C-37 9 -37 9 -34 8.875 C-31 9 -31 9 -30 10 C-29.95919217 11.99958364 -29.95745644 14.00045254 -30 16 C-29.34 16 -28.68 16 -28 16 C-27.54625 16.969375 -27.0925 17.93875 -26.625 18.9375 C-25.34213779 22.07079582 -25.34213779 22.07079582 -23 23 C-23 17.39 -23 11.78 -23 6 C-19.535 5.505 -19.535 5.505 -16 5 C-12.535 10.445 -12.535 10.445 -9 16 C-8.67 11.05 -8.34 6.1 -8 1 C-4 0 -4 0 0 0 Z " fill="#FFF1F1" transform="translate(262,80)"/>
<path d="M0 0 C2.30439989 0.93870407 3.28471969 1.8904552 4.8671875 3.79589844 C5.37765625 4.40175781 5.888125 5.00761719 6.4140625 5.63183594 C6.93484375 6.26863281 7.455625 6.90542969 7.9921875 7.56152344 C8.51296875 8.18285156 9.03375 8.80417969 9.5703125 9.44433594 C10.58697977 10.66125585 11.59744931 11.88338554 12.60107422 13.11108398 C13.84339316 14.62964338 15.10776515 16.13009965 16.375 17.62792969 C17.9921875 19.81152344 17.9921875 19.81152344 17.8671875 21.99902344 C16.9921875 23.81152344 16.9921875 23.81152344 14.9921875 25.81152344 C7.74905522 25.58158273 1.67785644 23.49828759 -5.0078125 20.81152344 C-3.8940625 21.89433594 -3.8940625 21.89433594 -2.7578125 22.99902344 C2.0874256 27.95438058 2.0874256 27.95438058 3.9921875 30.81152344 C3.7421875 33.12402344 3.7421875 33.12402344 2.9921875 34.81152344 C2.3321875 34.81152344 1.6721875 34.81152344 0.9921875 34.81152344 C0.9921875 35.47152344 0.9921875 36.13152344 0.9921875 36.81152344 C-2.30304745 36.2447342 -3.73828366 35.40296242 -5.84765625 32.82714844 C-6.35361328 32.22128906 -6.85957031 31.61542969 -7.38085938 30.99121094 C-7.89712891 30.35441406 -8.41339844 29.71761719 -8.9453125 29.06152344 C-9.97324869 27.81506999 -11.0031709 26.57025151 -12.03515625 25.32714844 C-12.52999512 24.73095703 -13.02483398 24.13476562 -13.53466797 23.52050781 C-15.57622914 21.15210738 -17.75840058 18.98222666 -20.0078125 16.81152344 C-18.63797747 13.65036568 -18.0187487 12.81881424 -15.0078125 10.81152344 C-9.95455498 11.09755688 -6.44610878 12.4958906 -2.0078125 14.81152344 C-0.34838619 15.17920973 1.31798158 15.51839647 2.9921875 15.81152344 C1.87189733 14.32878645 0.74580132 12.85043458 -0.3828125 11.37402344 C-1.00929687 10.5503125 -1.63578125 9.72660156 -2.28125 8.87792969 C-3.84535154 6.72624252 -3.84535154 6.72624252 -6.0078125 5.81152344 C-5.6953125 3.93652344 -5.6953125 3.93652344 -5.0078125 1.81152344 C-2.0078125 -0.18847656 -2.0078125 -0.18847656 0 0 Z " fill="#FFF2F2" transform="translate(174.0078125,119.1884765625)"/>
<path d="M0 0 C1.43389528 0.31242137 2.86741737 0.62655587 4.30078125 0.94140625 C5.49828003 1.20352905 5.49828003 1.20352905 6.7199707 1.47094727 C11.85186567 2.66174033 16.34137929 4.55977011 21 7 C20.67 8.65 20.34 10.3 20 12 C14.33895411 11.50341703 10.12325529 10.45489316 5 8 C5 9.65 5 11.3 5 13 C9.455 13.99 9.455 13.99 14 15 C15 19 15 19 14 22 C9.28596212 21.52060632 5.33420699 21.03165952 1 19 C1 20.65 1 22.3 1 24 C1.928125 24.12375 2.85625 24.2475 3.8125 24.375 C7 25 7 25 10 27 C11.65549531 27.38499891 13.3222433 27.72793135 15 28 C14.34 29.98 13.68 31.96 13 34 C5.42659489 34.71000673 -1.49110031 30.3706802 -8 27 C-7.46649744 20.50779983 -5.78611207 15.05523349 -3.4375 9 C-3.10814453 8.12988281 -2.77878906 7.25976562 -2.43945312 6.36328125 C-1.63411705 4.23906146 -0.82088519 2.11824836 0 0 Z " fill="#FFE8E8" transform="translate(356,87)"/>
<path d="M0 0 C2.375 -0.125 2.375 -0.125 5 0 C7 2 7 2 7 5 C5.5437455 5.67119549 4.08492133 6.33681807 2.625 7 C1.81289062 7.37125 1.00078125 7.7425 0.1640625 8.125 C-2 9 -2 9 -4 9 C-4.33 10.98 -4.66 12.96 -5 15 C-4.38511719 14.71125 -3.77023438 14.4225 -3.13671875 14.125 C-2.32847656 13.75375 -1.52023438 13.3825 -0.6875 13 C0.11300781 12.62875 0.91351563 12.2575 1.73828125 11.875 C4 11 4 11 7 11 C7.33 12.65 7.66 14.3 8 16 C5.36 17.65 2.72 19.3 0 21 C0.33 22.32 0.66 23.64 1 25 C2.65 25 4.3 25 6 25 C6 24.34 6 23.68 6 23 C11.29230769 19.92307692 11.29230769 19.92307692 14.875 20.3125 C15.57625 20.539375 16.2775 20.76625 17 21 C17.495 22.98 17.495 22.98 18 25 C15.44113496 26.32002556 12.87832932 27.63113782 10.3125 28.9375 C9.2306543 29.49727539 9.2306543 29.49727539 8.12695312 30.06835938 C4.43494258 31.93965239 1.16306904 33.48269556 -3 34 C-3.66 32.35 -4.32 30.7 -5 29 C-5.66 29 -6.32 29 -7 29 C-7.99 26.03 -8.98 23.06 -10 20 C-10.66 20 -11.32 20 -12 20 C-16.08529742 14.98092031 -16.08529742 14.98092031 -15.75 11.125 C-15.5025 10.42375 -15.255 9.7225 -15 9 C-13.68 8.67 -12.36 8.34 -11 8 C-11 7.34 -11 6.68 -11 6 C-9.5437455 5.32880451 -8.08492133 4.66318193 -6.625 4 C-5.81289062 3.62875 -5.00078125 3.2575 -4.1640625 2.875 C-2 2 -2 2 0 2 C0 1.34 0 0.68 0 0 Z " fill="#FFECEC" transform="translate(205,98)"/>
<path d="M0 0 C1.8125 2.125 1.8125 2.125 3 5 C3.391875 5.928125 3.78375 6.85625 4.1875 7.8125 C5.18073485 11.70903671 5.1383599 14.98756301 5 19 C-0.12249463 22.37866667 -4.73061055 24.47838715 -11 24 C-14.71647948 21.27458172 -15.88814921 15.35663984 -17 11 C-17.56353591 5.9281768 -17.56353591 5.9281768 -15.9375 3.25 C-11.1802952 0.18083562 -5.54916844 -0.74700344 0 0 Z " fill="#FFEEEE" transform="translate(361,435)"/>
<path d="M0 0 C0.66 0.33 1.32 0.66 2 1 C2.60813535 4.0586956 2.95991645 7.12009615 3.33984375 10.21484375 C3.74166224 13.32010228 3.74166224 13.32010228 7 15 C6.34 16.32 5.68 17.64 5 19 C1.66666667 18.33333333 -1.66666667 17.66666667 -5 17 C-4.67 19.31 -4.34 21.62 -4 24 C-6.3125 24.3125 -6.3125 24.3125 -9 24 C-10.81883009 21.6167054 -12 20.04181663 -12 17 C-12.66 17 -13.32 17 -14 17 C-14.67667998 15.75539217 -15.34094719 14.50403104 -16 13.25 C-16.37125 12.55390625 -16.7425 11.8578125 -17.125 11.140625 C-18 9 -18 9 -18 5 C-17.37351562 4.72285156 -16.74703125 4.44570313 -16.1015625 4.16015625 C-15.28429687 3.79792969 -14.46703125 3.43570312 -13.625 3.0625 C-12.81289063 2.70285156 -12.00078125 2.34320313 -11.1640625 1.97265625 C-7.1194823 0.15478537 -4.53569112 -0.16198897 0 0 Z " fill="#FFE8E8" transform="translate(392,422)"/>
<path d="M0 0 C3 0 3 0 5.1875 2 C6.0846875 2.99 6.0846875 2.99 7 4 C5.55344601 8.33966197 2.44126298 10.64691555 -0.8515625 13.73828125 C-1.47804688 14.34027344 -2.10453125 14.94226563 -2.75 15.5625 C-3.34296875 16.12066406 -3.9359375 16.67882812 -4.546875 17.25390625 C-6.34774966 19.16089522 -6.34774966 19.16089522 -7 23 C-2.05 26.96 -2.05 26.96 3 31 C2.34 32.32 1.68 33.64 1 35 C-4.1116363 35 -6.02587855 32.80411943 -9.625 29.5625 C-13.54629593 25.90255455 -13.54629593 25.90255455 -18 23 C-17.13767414 18.41781289 -14.39994437 15.87994252 -11.25 12.625 C-10.19127936 11.51438128 -9.13397569 10.40241 -8.078125 9.2890625 C-7.56056641 8.74797852 -7.04300781 8.20689453 -6.50976562 7.64941406 C-5.01719349 6.01878384 -3.65955748 4.32555389 -2.296875 2.5859375 C-1.53890625 1.73257813 -0.7809375 0.87921875 0 0 Z " fill="#FFEAEA" transform="translate(423,122)"/>
<path d="M0 0 C2.5 0.125 2.5 0.125 3.5 1.125 C4.17781581 4.85298694 3.2159268 6.80336235 1.1875 9.8125 C-1.82886305 14.2941985 -3.18889822 18.92323032 -4.5 24.125 C-3.84 24.125 -3.18 24.125 -2.5 24.125 C-2.5 24.785 -2.5 25.445 -2.5 26.125 C-1.3553125 26.558125 -1.3553125 26.558125 -0.1875 27 C2.5 28.125 2.5 28.125 5.5 30.125 C5.17 31.445 4.84 32.765 4.5 34.125 C-1.69579772 34.125 -7.29415981 30.20600746 -12.5 27.125 C-12.5 26.465 -12.5 25.805 -12.5 25.125 C-13.49 24.795 -14.48 24.465 -15.5 24.125 C-13.9691271 18.64010109 -11.35170412 14.14752324 -8.4375 9.3125 C-7.97794922 8.53712891 -7.51839844 7.76175781 -7.04492188 6.96289062 C-2.985362 0.1492681 -2.985362 0.1492681 0 0 Z " fill="#FFE9E9" transform="translate(393.5,101.875)"/>
<path d="M0 0 C4.89254736 0.72422576 6.01447831 2.08150279 9 6 C11.61857695 7.78962819 11.61857695 7.78962819 14 9 C13.67 10.32 13.34 11.64 13 13 C9.17670414 12.4833384 7.62665115 11.74085338 5 9 C2.89667109 8.28552357 2.89667109 8.28552357 1 8 C2.80412643 11.26460973 3.83394693 12.88929795 7 15 C6.67 15.99 6.34 16.98 6 18 C1.25 17.25 1.25 17.25 -1 15 C-1.99 15 -2.98 15 -4 15 C-4.33 15.99 -4.66 16.98 -5 18 C-4.4225 18.268125 -3.845 18.53625 -3.25 18.8125 C-0.92636635 20.0388622 1.03824646 21.24843434 3 23 C3 23.99 3 24.98 3 26 C-3.46498449 25.83423117 -7.30435802 21.99651306 -12 18 C-11.40336514 14.90106073 -10.4698686 12.99707826 -8.49609375 10.546875 C-8.00302734 9.928125 -7.50996094 9.309375 -7.00195312 8.671875 C-6.48568359 8.03765625 -5.96941406 7.4034375 -5.4375 6.75 C-4.91736328 6.1003125 -4.39722656 5.450625 -3.86132812 4.78125 C-2.580156 3.18272331 -1.29085995 1.59071374 0 0 Z " fill="#FFE4E4" transform="translate(179,402)"/>
<path d="M0 0 C1.134375 0.020625 2.26875 0.04125 3.4375 0.0625 C4.60942435 3.18555373 5.77413876 6.31124739 6.9375 9.4375 C7.27136719 10.32695312 7.60523438 11.21640625 7.94921875 12.1328125 C8.26503906 12.98359375 8.58085937 13.834375 8.90625 14.7109375 C9.34614258 15.88922119 9.34614258 15.88922119 9.79492188 17.09130859 C10.4375 19.0625 10.4375 19.0625 10.4375 21.0625 C8.4575 21.0625 6.4775 21.0625 4.4375 21.0625 C4.1075 20.0725 3.7775 19.0825 3.4375 18.0625 C0.7975 17.7325 -1.8425 17.4025 -4.5625 17.0625 C-4.8925 18.3825 -5.2225 19.7025 -5.5625 21.0625 C-6.8825 21.0625 -8.2025 21.0625 -9.5625 21.0625 C-8.67269798 0.1521526 -8.67269798 0.1521526 0 0 Z " fill="#FFE9E9" transform="translate(294.5625,445.9375)"/>
<path d="M0 0 C2 0 2 0 3.515625 1.50390625 C4.08796875 2.18324219 4.6603125 2.86257812 5.25 3.5625 C5.86488281 4.28824219 6.47976563 5.01398438 7.11328125 5.76171875 C7.73589844 6.50035156 8.35851562 7.23898438 9 8 C9.59167969 8.66644531 10.18335938 9.33289063 10.79296875 10.01953125 C11.33566406 10.63183594 11.87835938 11.24414062 12.4375 11.875 C12.93121094 12.42929687 13.42492187 12.98359375 13.93359375 13.5546875 C15 15 15 15 15 17 C5.43 17 -4.14 17 -14 17 C-14 15 -14 15 -12.0625 13 C-11.38960938 12.35998047 -11.38960938 12.35998047 -10.703125 11.70703125 C-7.63257018 8.62943387 -4.83821502 5.29273493 -1.98828125 2.01171875 C-1.33214844 1.34785156 -0.67601562 0.68398437 0 0 Z " fill="#171717" transform="translate(296,245)"/>
<path d="M0 0 C-0.25 2.3125 -0.25 2.3125 -1 5 C-2.31337396 6.0260734 -3.64664105 7.02727325 -5 8 C-5.79623822 10.09415804 -5.79623822 10.09415804 -6 12 C-1.17557816 10.73053486 -1.17557816 10.73053486 2 7 C4.3125 6.4375 4.3125 6.4375 7 7 C9.87049398 9.68328785 11.81456147 11.51649177 12.3125 15.5 C10.2441223 19.43976705 6.78284434 21.7488595 3 24 C2.34 24 1.68 24 1 24 C1 24.66 1 25.32 1 26 C-0.32 25.67 -1.64 25.34 -3 25 C-2.66410006 21.86493389 -1.97334828 20.974751 0.375 18.75 C3 17 3 17 6 17 C6 15.68 6 14.36 6 13 C3.32867456 13.9646453 1.21650113 14.82409283 -1 16.625 C-3 18 -3 18 -5.5 18.5 C-8 18 -8 18 -10.375 15.8125 C-12 13 -12 13 -12.0625 10.5625 C-9.88867194 5.3197382 -6.02137174 0 0 0 Z " fill="#FFEAEA" transform="translate(414,403)"/>
<path d="M0 0 C1.98 0 3.96 0 6 0 C7.33333333 4 8.66666667 8 10 12 C10.36351562 11.3503125 10.72703125 10.700625 11.1015625 10.03125 C12.61257396 7.52064635 14.08106255 5.21715071 16 3 C19.375 2.4375 19.375 2.4375 22 3 C21.67 5.31 21.34 7.62 21 10 C20.01 10.33 19.02 10.66 18 11 C16.18210265 14.06797689 14.60777842 17.22175733 13.01171875 20.41015625 C12.34785156 21.26480469 11.68398438 22.11945313 11 23 C7.76953125 23.37109375 7.76953125 23.37109375 5 23 C0 6.46153846 0 6.46153846 0 0 Z " fill="#FFE2E2" transform="translate(254,441)"/>
<path d="M0 0 C5.96564796 0.50771472 10.63809899 2.38592128 16 5 C16 5.99 16 6.98 16 8 C11.97007218 7.44687265 7.97977076 6.8441938 4 6 C4.72268235 9.2985139 4.72268235 9.2985139 8.0625 10.6875 C9.5165625 11.3371875 9.5165625 11.3371875 11 12 C11 12.99 11 13.98 11 15 C7.05272412 15.17942163 4.4019487 15.09350689 1 13 C1 14.65 1 16.3 1 18 C1.7425 18.12375 2.485 18.2475 3.25 18.375 C5.80141485 18.95486701 7.7267573 19.73708739 10 21 C10 21.99 10 22.98 10 24 C4.34979382 23.39891424 -0.66164461 21.92471317 -6 20 C-5.24318777 13.0373275 -3.92513415 5.88770122 0 0 Z " fill="#FFEAEA" transform="translate(228,433)"/>
<path d="M0 0 C9.24 0 18.48 0 28 0 C26.27940146 3.44119708 25.28691429 4.92088671 22.625 7.4375 C19.83854727 10.13669429 17.34766619 12.90108063 15 16 C10.7936195 14.39756933 8.18479822 11.26602216 5.25 8 C4.74339844 7.4534375 4.23679687 6.906875 3.71484375 6.34375 C0 2.25842318 0 2.25842318 0 0 Z " fill="#0F0F0F" transform="translate(283,273)"/>
<path d="M0 0 C1.65 0.33 3.3 0.66 5 1 C5 2.98 5 4.96 5 7 C4.37609375 7.22429687 3.7521875 7.44859375 3.109375 7.6796875 C0.27668841 9.45273948 0.06744557 10.93696227 -0.75 14.125 C-0.99234375 15.03507812 -1.2346875 15.94515625 -1.484375 16.8828125 C-1.73960937 17.93082031 -1.73960937 17.93082031 -2 19 C0.65228812 20.07525194 3.28368454 21.09456151 6 22 C6 23.32 6 24.64 6 26 C4.35 26 2.7 26 1 26 C1 25.34 1 24.68 1 24 C0.37351563 23.79503906 -0.25296875 23.59007812 -0.8984375 23.37890625 C-1.71570313 23.10949219 -2.53296875 22.84007812 -3.375 22.5625 C-4.18710938 22.29566406 -4.99921875 22.02882813 -5.8359375 21.75390625 C-8 21 -8 21 -10 20 C-9.625 17.5625 -9.625 17.5625 -9 15 C-8.34 14.67 -7.68 14.34 -7 14 C-5.97520995 11.7920741 -5.97520995 11.7920741 -5.0625 9.1875 C-3.77188835 5.65007455 -2.38995501 2.92105613 0 0 Z " fill="#FFE1E1" transform="translate(203,419)"/>
<path d="M0 0 C2.875 1.5625 2.875 1.5625 5 4 C5.63734462 7.96569988 5.61999672 10.03280512 3.4375 13.4375 C0.03280512 15.61999672 -2.03430012 15.63734462 -6 15 C-8.96135546 12.41830549 -9.86756104 10.81118865 -10.5 6.9375 C-10 4 -10 4 -8.375 1.625 C-5.26965639 -0.49970879 -3.6986604 -0.60386292 0 0 Z " fill="#161616" transform="translate(482,290)"/>
<path d="M0 0 C0 1.32 0 2.64 0 4 C-1.98 4 -3.96 4 -6 4 C-5.855625 4.79664063 -5.71125 5.59328125 -5.5625 6.4140625 C-5.376875 7.47367187 -5.19125 8.53328125 -5 9.625 C-4.814375 10.66914063 -4.62875 11.71328125 -4.4375 12.7890625 C-4.01284203 15.90574865 -3.92454794 18.85930812 -4 22 C-5.65 22 -7.3 22 -9 22 C-9.99 17.05 -10.98 12.1 -12 7 C-14.31 6.67 -16.62 6.34 -19 6 C-18.67 4.35 -18.34 2.7 -18 1 C-11.97403427 -0.0712828 -6.11090483 -0.09945415 0 0 Z " fill="#FFE9E9" transform="translate(332,443)"/>
<path d="M0 0 C2.70415801 2.19712839 2.94492745 3.55941961 3.375 7 C2.94492745 10.44058039 2.70415801 11.80287161 0 14 C-2.77515685 14.56659452 -5.22422681 14.5609375 -8 14 C-10 12.4375 -10 12.4375 -11 10 C-11.35773097 6.60155579 -11.58904125 4.14126742 -10 1.0625 C-6.75895557 -0.65930485 -3.57577233 -0.66300779 0 0 Z " fill="#0A0A0A" transform="translate(118,291)"/>
<path d="M0 0 C0 1.32 0 2.64 0 4 C-1.32 4.33 -2.64 4.66 -4 5 C-3.11223998 8.69900008 -2.05418136 12.34550461 -1 16 C0.98 16.33 2.96 16.66 5 17 C5 18.32 5 19.64 5 21 C1.98996837 21.58055117 -0.92950801 22.0109465 -4 22 C-7.71647948 19.27458172 -8.88814921 13.35663984 -10 9 C-10.36169714 5.74472577 -10.54841791 3.96779632 -8.9375 1.125 C-5.99772876 -0.58196395 -3.32129197 -0.18799766 0 0 Z " fill="#FFF2F2" transform="translate(354,437)"/>
<path d="M0 0 C3.62870159 8.261959 3.62870159 8.261959 2 13 C-0.31 13.33 -2.62 13.66 -5 14 C-5.70180531 12.5903653 -6.38593958 11.17192359 -7.0625 9.75 C-7.44535156 8.96109375 -7.82820313 8.1721875 -8.22265625 7.359375 C-9.08564091 4.74006478 -8.93045933 3.55144824 -8 1 C-5.10765685 0.17361624 -3.11257569 0 0 0 Z " fill="#FF6E6F" transform="translate(358,440)"/>
<path d="M0 0 C1.93166016 0.01740234 1.93166016 0.01740234 3.90234375 0.03515625 C5.19269531 0.04417969 6.48304687 0.05320312 7.8125 0.0625 C8.81152344 0.07410156 9.81054688 0.08570313 10.83984375 0.09765625 C10.83984375 0.42765625 10.83984375 0.75765625 10.83984375 1.09765625 C10.06640625 1.07703125 9.29296875 1.05640625 8.49609375 1.03515625 C2.86756796 1.14661221 -1.4779718 1.53979795 -5.91015625 5.22265625 C-9.90139784 9.72517259 -9.8197757 14.45816107 -9.56933594 20.16845703 C-9.46024522 21.81356175 -9.31404874 23.4561364 -9.16015625 25.09765625 C-10.15015625 24.43765625 -11.14015625 23.77765625 -12.16015625 23.09765625 C-13.06987579 17.97971025 -13.02450184 13.19302684 -12.16015625 8.09765625 C-9.94259301 4.92900477 -7.45730146 3.0633961 -4.16015625 1.09765625 C-3.16015625 0.09765625 -3.16015625 0.09765625 0 0 Z " fill="#CECECE" transform="translate(110.16015625,281.90234375)"/>
<path d="M0 0 C0.66 0.33 1.32 0.66 2 1 C-5.12264575 8.89415089 -12.41515703 16.54719492 -20 24 C-20.99 23.67 -21.98 23.34 -23 23 C-15.33333333 15.33333333 -7.66666667 7.66666667 0 0 Z " fill="#CA4445" transform="translate(156,109)"/>
<path d="M0 0 C0.66 0.33 1.32 0.66 2 1 C-2.82313758 6.49004056 -7.74258398 11.8611578 -12.875 17.0625 C-14.23238281 18.44115234 -14.23238281 18.44115234 -15.6171875 19.84765625 C-18 22 -18 22 -21 23 C-17.21045161 14.10913648 -8.29931115 7.06052466 -1 1 C-0.67 0.67 -0.34 0.34 0 0 Z " fill="#CACACA" transform="translate(207,163)"/>
<path d="M0 0 C0.66 0.33 1.32 0.66 2 1 C-2.82313758 6.49004056 -7.74258398 11.8611578 -12.875 17.0625 C-14.23238281 18.44115234 -14.23238281 18.44115234 -15.6171875 19.84765625 C-18 22 -18 22 -21 23 C-19.48623919 19.43235715 -17.39486871 17.16293713 -14.6484375 14.453125 C-13.79765625 13.60878906 -12.946875 12.76445313 -12.0703125 11.89453125 C-11.18085938 11.02183594 -10.29140625 10.14914063 -9.375 9.25 C-8.4778125 8.36183594 -7.580625 7.47367187 -6.65625 6.55859375 C-4.44192996 4.36783031 -2.22307565 2.18187237 0 0 Z " fill="#363636" transform="translate(148,104)"/>
<path d="M0 0 C0 0.33 0 0.66 0 1 C-1.2684375 0.9690625 -1.2684375 0.9690625 -2.5625 0.9375 C-8.48615576 1.04520283 -13.14683057 1.25162656 -17.75 5.25 C-22.26382979 10.44659396 -22.16135952 16.38425969 -22 23 C-22.33 23 -22.66 23 -23 23 C-24.16444982 10.57920193 -24.16444982 10.57920193 -21.74609375 5.22265625 C-15.93925851 -1.71293746 -8.23055832 -0.77161484 0 0 Z " fill="#D6D6D6" transform="translate(487,282)"/>
<path d="M0 0 C1.65 0.33 3.3 0.66 5 1 C5 2.65 5 4.3 5 6 C3.68 6.33 2.36 6.66 1 7 C1 7.99 1 8.98 1 10 C-1.31 9.34 -3.62 8.68 -6 8 C-6 6.35 -6 4.7 -6 3 C-1.05 3.99 -1.05 3.99 4 5 C3.24849977 1.72226496 3.24849977 1.72226496 0 0 Z " fill="#FF7D7E" transform="translate(235,443)"/>
<path d="M0 0 C0 1.32 0 2.64 0 4 C-6.75 7.875 -6.75 7.875 -9 9 C-9 8.01 -9 7.02 -9 6 C-10.65 6 -12.3 6 -14 6 C-14 5.67 -14 5.34 -14 5 C-13.0925 4.731875 -12.185 4.46375 -11.25 4.1875 C-8.03932599 3.19729814 -8.03932599 3.19729814 -5.875 1.375 C-4 0 -4 0 0 0 Z " fill="#FF797A" transform="translate(420,416)"/>
<path d="M0 0 C0.33 1.65 0.66 3.3 1 5 C-2 7 -2 7 -4.1875 6.625 C-4.785625 6.41875 -5.38375 6.2125 -6 6 C-6.33 4.68 -6.66 3.36 -7 2 C-4 0 -4 0 0 0 Z " fill="#FF6D6E" transform="translate(388,427)"/>
<path d="M0 0 C1.125 3.75 1.125 3.75 0 6 C0.66 6.33 1.32 6.66 2 7 C0.8125 9 0.8125 9 -1 11 C-3.6875 11.25 -3.6875 11.25 -6 11 C-5.5037037 6.40925926 -5.5037037 6.40925926 -3 4.375 C-2.01 3.694375 -2.01 3.694375 -1 3 C-0.67 2.01 -0.34 1.02 0 0 Z " fill="#FF8686" transform="translate(414,404)"/>
<path d="M0 0 C0.33 0 0.66 0 1 0 C1 5.61 1 11.22 1 17 C0.01 16.67 -0.98 16.34 -2 16 C-3.1875 12.9375 -3.1875 12.9375 -4 10 C-4.66 10 -5.32 10 -6 10 C-5.67 8.68 -5.34 7.36 -5 6 C-3.5 7.25 -3.5 7.25 -2 9 C-2 10.32 -2 11.64 -2 13 C-1.34 13 -0.68 13 0 13 C0 8.71 0 4.42 0 0 Z " fill="#FF9B9B" transform="translate(238,86)"/>
<path d="M0 0 C0.66 0.33 1.32 0.66 2 1 C0.92492371 2.29854721 -0.16043736 3.58858361 -1.25 4.875 C-1.85328125 5.59429687 -2.4565625 6.31359375 -3.078125 7.0546875 C-4.97087634 8.97052118 -6.53657727 9.96449045 -9 11 C-9 11.99 -9 12.98 -9 14 C-9.66 14 -10.32 14 -11 14 C-9.61085525 9.70281047 -7.61968015 7.29312243 -4.375 4.1875 C-3.55773437 3.39730469 -2.74046875 2.60710937 -1.8984375 1.79296875 C-0.95871094 0.90544922 -0.95871094 0.90544922 0 0 Z " fill="#CA4545" transform="translate(115,329)"/>
<path d="M0 0 C3 1 3 1 4.75 3.4375 C5.36875 4.7059375 5.36875 4.7059375 6 6 C5.67 6.66 5.34 7.32 5 8 C3.68 7.34 2.36 6.68 1 6 C1 9.63 1 13.26 1 17 C0.34 16.67 -0.32 16.34 -1 16 C-0.67 10.72 -0.34 5.44 0 0 Z " fill="#FF8A8B" transform="translate(245,98)"/>
<path d="M0 0 C0.66 0.33 1.32 0.66 2 1 C0.26009069 2.98889633 -1.49085675 4.96573765 -3.25 6.9375 C-3.74113281 7.50146484 -4.23226562 8.06542969 -4.73828125 8.64648438 C-7.39017854 11.59893002 -9.09043262 13.29349578 -13 14 C-8.88380164 9.08064098 -4.59589638 4.47352044 0 0 Z " fill="#AEAEAE" transform="translate(139,98)"/>
<path d="M0 0 C0 0.33 0 0.66 0 1 C-2.91516484 1.53084792 -5.83160557 2.04999055 -8.75 2.5625 C-9.575 2.71396484 -10.4 2.86542969 -11.25 3.02148438 C-12.44882812 3.2293457 -12.44882812 3.2293457 -13.671875 3.44140625 C-14.4050293 3.57232666 -15.13818359 3.70324707 -15.89355469 3.83813477 C-18.16233287 4.01247412 -19.83778579 3.66874807 -22 3 C-15.89261921 -1.07158719 -7.16976178 -0.13527852 0 0 Z " fill="#777777" transform="translate(269,51)"/>
<path d="M0 0 C6.20970773 -0.33266291 10.28264895 0.54970669 16 3 C12.23331402 4.3805087 9.55210827 3.59568159 5.75 2.5625 C4.13351562 2.13130859 4.13351562 2.13130859 2.484375 1.69140625 C1.25460937 1.34916016 1.25460937 1.34916016 0 1 C0 0.67 0 0.34 0 0 Z " fill="#626262" transform="translate(343,43)"/>
<path d="M0 0 C2.51033417 1.1336993 2.96441202 2.36118938 3.9375 4.875 C1.4625 3.885 1.4625 3.885 -1.0625 2.875 C-2.0525 4.195 -3.0425 5.515 -4.0625 6.875 C-4.7225 6.545 -5.3825 6.215 -6.0625 5.875 C-5.75 4 -5.75 4 -5.0625 1.875 C-2.0625 -0.125 -2.0625 -0.125 0 0 Z " fill="#FFCFCF" transform="translate(174.0625,119.125)"/>
<path d="M0 0 C0.66 0 1.32 0 2 0 C2 2.31 2 4.62 2 7 C0.68 7 -0.64 7 -2 7 C-2.33 8.65 -2.66 10.3 -3 12 C-3.88336837 9.5332355 -4.1312406 8.36140628 -3.22265625 5.859375 C-2.83980469 5.16328125 -2.45695312 4.4671875 -2.0625 3.75 C-1.68222656 3.04359375 -1.30195313 2.3371875 -0.91015625 1.609375 C-0.60980469 1.07828125 -0.30945313 0.5471875 0 0 Z " fill="#FF9A9B" transform="translate(318,91)"/>
<path d="M0 0 C0.33 0 0.66 0 1 0 C1 1.98 1 3.96 1 6 C2.32 5.67 3.64 5.34 5 5 C4.34 7.31 3.68 9.62 3 12 C2.34 12 1.68 12 1 12 C-0.3271261 8.0186217 -0.06915913 4.14954773 0 0 Z " fill="#FF8E8F" transform="translate(308,82)"/>
<path d="M0 0 C0.99 0.33 1.98 0.66 3 1 C2.67 2.65 2.34 4.3 2 6 C-1.71888239 5.49287967 -4.73454239 4.88391785 -8 3 C-4.79937313 1.39968656 -2.27728194 2.96826309 1 4 C0.67 2.68 0.34 1.36 0 0 Z " fill="#FF8F90" transform="translate(237,453)"/>
<path d="M0 0 C0.66 0.33 1.32 0.66 2 1 C1.06409496 2.1055189 0.12620142 3.20935453 -0.8125 4.3125 C-1.33457031 4.92738281 -1.85664063 5.54226562 -2.39453125 6.17578125 C-3.87172469 7.85424679 -5.40039131 9.43882034 -7 11 C-7.66 10.67 -8.32 10.34 -9 10 C-7.8758824 8.70756532 -6.75067408 7.41607925 -5.625 6.125 C-4.99851563 5.40570313 -4.37203125 4.68640625 -3.7265625 3.9453125 C-2.52573166 2.5923402 -1.2791655 1.2791655 0 0 Z " fill="#4B4B4B" transform="translate(207,177)"/>
<path d="M0 0 C0.8971875 0.309375 0.8971875 0.309375 1.8125 0.625 C1.008125 1.24375 0.20375 1.8625 -0.625 2.5 C-3.22624519 4.36664041 -3.22624519 4.36664041 -4.1875 6.625 C-5.1775 6.295 -6.1675 5.965 -7.1875 5.625 C-5.69046729 2.17030914 -4.27938051 -0.73360809 0 0 Z " fill="#FFD0D0" transform="translate(161.1875,130.375)"/>
<path d="M0 0 C0.66 0.33 1.32 0.66 2 1 C1.04882866 2.1725131 0.08882991 3.33787015 -0.875 4.5 C-1.40867187 5.1496875 -1.94234375 5.799375 -2.4921875 6.46875 C-2.98976563 6.9740625 -3.48734375 7.479375 -4 8 C-4.66 8 -5.32 8 -6 8 C-4.55746343 4.63408134 -2.66735273 2.48952921 0 0 Z " fill="#BD4041" transform="translate(440,330)"/>
<path d="M0 0 C0.99 0.33 1.98 0.66 3 1 C-1.5 5.875 -1.5 5.875 -6 7 C-4.02 4.69 -2.04 2.38 0 0 Z " fill="#C24242" transform="translate(212,187)"/>
<path d="M0 0 C4.75 0.75 4.75 0.75 7 3 C6.01 4.485 6.01 4.485 5 6 C3.2925002 4.71937515 1.62626404 3.38232443 0 2 C0 1.34 0 0.68 0 0 Z " fill="#FF8081" transform="translate(169,140)"/>
<path d="M0 0 C2 3 2 3 2 6 C2.66 6 3.32 6 4 6 C4.33 5.01 4.66 4.02 5 3 C4.67 4.65 4.34 6.3 4 8 C3.01 8.33 2.02 8.66 1 9 C0.67 6.03 0.34 3.06 0 0 Z " fill="#FFBBBC" transform="translate(324,88)"/>
<path d="M0 0 C0.598125 0.226875 1.19625 0.45375 1.8125 0.6875 C0.8225 0.6875 -0.1675 0.6875 -1.1875 0.6875 C-1.47625 1.265 -1.765 1.8425 -2.0625 2.4375 C-3.10416667 4.52083333 -4.14583333 6.60416667 -5.1875 8.6875 C-5.55003776 3.24943353 -5.55003776 3.24943353 -3.9375 0.75 C-2.1875 -0.3125 -2.1875 -0.3125 0 0 Z " fill="#FFD1D1" transform="translate(349.1875,437.3125)"/>
<path d="M0 0 C0.99 0 1.98 0 3 0 C2.6875 2.375 2.6875 2.375 2 5 C1.01 5.66 0.02 6.32 -1 7 C-0.7525 6.1028125 -0.7525 6.1028125 -0.5 5.1875 C0.1114124 2.88655664 0.1114124 2.88655664 0 0 Z " fill="#FFE1E1" transform="translate(411,403)"/>
<path d="M0 0 C-0.28875 0.53625 -0.5775 1.0725 -0.875 1.625 C-2.16711808 4.35280484 -3.08558592 7.12612718 -4 10 C-4.33 10 -4.66 10 -5 10 C-5.3669579 3.51707705 -5.3669579 3.51707705 -3.625 1.0625 C-2 0 -2 0 0 0 Z " fill="#2F2F2F" transform="translate(112,291)"/>
<path d="M0 0 C0.99 0.66 1.98 1.32 3 2 C3 2.66 3 3.32 3 4 C-3.15234375 3.4140625 -3.15234375 3.4140625 -5 3 C-5.33 2.34 -5.66 1.68 -6 1 C-3.03 1.495 -3.03 1.495 0 2 C0 1.34 0 0.68 0 0 Z " fill="#FF9D9D" transform="translate(174,131)"/>
<path d="M0 0 C0.66 0.33 1.32 0.66 2 1 C1.34 1.66 0.68 2.32 0 3 C-0.16687448 5.58354218 -0.16687448 5.58354218 0 8 C-0.99 7.34 -1.98 6.68 -3 6 C-2.625 3.5625 -2.625 3.5625 -2 1 C-1.34 0.67 -0.68 0.34 0 0 Z " fill="#FFCCCC" transform="translate(192,106)"/>
</svg>
